<svg width="6400" height="525" viewBox="0 0 6400 525" fill="none" xmlns="http://www.w3.org/2000/svg">
<path d="M96.249 250.5C95.2934 250.5 94.2605 250.53 93.3018 250.562C92.3482 250.592 91.46 250.624 90.8125 250.624C90.2422 250.624 88.4042 250.747 86.0977 250.872C83.8108 250.996 81.0949 251.122 78.8203 251.122C76.52 251.122 78.7417 251.614 68.3359 251.121C63.1344 250.875 56.8047 251.001 50.4307 251.131C44.067 251.26 37.6593 251.392 32.334 251.151L32.335 251.15C27.9434 250.998 21.0839 250.841 14.7754 250.857C11.6198 250.866 8.60623 250.918 6.11035 251.037C3.80281 251.147 1.97537 251.315 0.884766 251.545C0.871237 251.612 0.853881 251.692 0.839844 251.785C0.798059 252.062 0.7597 252.421 0.726562 252.815C0.660368 253.603 0.618107 254.502 0.608398 255.107C0.480793 263.07 0.353602 266.032 0.93457 273.414C0.951578 273.63 0.970893 273.721 0.990234 273.766C0.99371 273.774 0.987512 273.775 1.02441 273.791C1.09201 273.82 1.23142 273.853 1.51562 273.871C1.79178 273.889 2.15962 273.89 2.65918 273.883C4.65577 273.852 8.51073 273.686 15.9482 274.003C30.7845 274.635 59.4065 274.149 75.5947 274.375C91.7604 274.6 95.186 274.489 97.1299 274.286C97.666 274.23 98.038 274.215 98.3779 274.156C98.6967 274.101 98.879 274.022 99.0068 273.901C99.1352 273.781 99.2704 273.56 99.3662 273.099C99.4625 272.634 99.5091 271.974 99.498 271.025C99.4341 265.55 99.4346 260.697 99.4346 257.09C99.4345 255.286 99.4347 253.795 99.4268 252.693C99.4197 251.715 99.4041 251.076 99.3828 250.789C99.3741 250.785 99.3648 250.779 99.3535 250.774C99.222 250.718 99.003 250.664 98.6895 250.619C98.0703 250.531 97.21 250.5 96.249 250.5Z" fill="#84B099" stroke="black" stroke-linecap="round" stroke-linejoin="round"/>
<path d="M496.249 425.5C495.293 425.5 494.261 425.53 493.302 425.562C492.348 425.592 491.46 425.624 490.812 425.624C490.242 425.624 488.404 425.747 486.098 425.872C483.811 425.996 481.095 426.122 478.82 426.122C476.52 426.122 478.742 426.614 468.336 426.121C463.134 425.875 456.805 426.001 450.431 426.131C444.067 426.26 437.659 426.392 432.334 426.151L432.335 426.15C427.943 425.998 421.084 425.841 414.775 425.857C411.62 425.866 408.606 425.918 406.11 426.037C403.803 426.147 401.975 426.315 400.885 426.545C400.871 426.612 400.854 426.692 400.84 426.785C400.798 427.062 400.76 427.421 400.727 427.815C400.66 428.603 400.618 429.502 400.608 430.107C400.481 438.07 400.354 441.032 400.935 448.414C400.952 448.63 400.971 448.721 400.99 448.766C400.994 448.774 400.988 448.775 401.024 448.791C401.092 448.82 401.231 448.853 401.516 448.871C401.792 448.889 402.16 448.89 402.659 448.883C404.656 448.852 408.511 448.686 415.948 449.003C430.784 449.635 459.407 449.149 475.595 449.375C491.76 449.6 495.186 449.489 497.13 449.286C497.666 449.23 498.038 449.215 498.378 449.156C498.697 449.101 498.879 449.022 499.007 448.901C499.135 448.781 499.27 448.56 499.366 448.099C499.462 447.634 499.509 446.974 499.498 446.025C499.434 440.55 499.435 435.697 499.435 432.09C499.435 430.286 499.435 428.795 499.427 427.693C499.42 426.715 499.404 426.076 499.383 425.789C499.374 425.785 499.365 425.779 499.354 425.774C499.222 425.718 499.003 425.664 498.689 425.619C498.07 425.531 497.21 425.5 496.249 425.5Z" fill="#84B099" stroke="black" stroke-linecap="round" stroke-linejoin="round"/>
<path d="M1296.25 425.5C1295.29 425.5 1294.26 425.53 1293.3 425.562C1292.35 425.592 1291.46 425.624 1290.81 425.624C1290.24 425.624 1288.4 425.747 1286.1 425.872C1283.81 425.996 1281.09 426.122 1278.82 426.122C1276.52 426.122 1278.74 426.614 1268.34 426.121C1263.13 425.875 1256.8 426.001 1250.43 426.131C1244.07 426.26 1237.66 426.392 1232.33 426.151L1232.33 426.15C1227.94 425.998 1221.08 425.841 1214.78 425.857C1211.62 425.866 1208.61 425.918 1206.11 426.037C1203.8 426.147 1201.98 426.315 1200.88 426.545C1200.87 426.612 1200.85 426.692 1200.84 426.785C1200.8 427.062 1200.76 427.421 1200.73 427.815C1200.66 428.603 1200.62 429.502 1200.61 430.107C1200.48 438.07 1200.35 441.032 1200.93 448.414C1200.95 448.63 1200.97 448.721 1200.99 448.766C1200.99 448.774 1200.99 448.775 1201.02 448.791C1201.09 448.82 1201.23 448.853 1201.52 448.871C1201.79 448.889 1202.16 448.89 1202.66 448.883C1204.66 448.852 1208.51 448.686 1215.95 449.003C1230.78 449.635 1259.41 449.149 1275.59 449.375C1291.76 449.6 1295.19 449.489 1297.13 449.286C1297.67 449.23 1298.04 449.215 1298.38 449.156C1298.7 449.101 1298.88 449.022 1299.01 448.901C1299.14 448.781 1299.27 448.56 1299.37 448.099C1299.46 447.634 1299.51 446.974 1299.5 446.025C1299.43 440.55 1299.43 435.697 1299.43 432.09C1299.43 430.286 1299.43 428.795 1299.43 427.693C1299.42 426.715 1299.4 426.076 1299.38 425.789C1299.37 425.785 1299.36 425.779 1299.35 425.774C1299.22 425.718 1299 425.664 1298.69 425.619C1298.07 425.531 1297.21 425.5 1296.25 425.5Z" fill="#84B099" stroke="black" stroke-linecap="round" stroke-linejoin="round"/>
<path d="M396.249 250.5C395.293 250.5 394.261 250.53 393.302 250.562C392.348 250.592 391.46 250.624 390.812 250.624C390.242 250.624 388.404 250.747 386.098 250.872C383.811 250.996 381.095 251.122 378.82 251.122C376.52 251.122 378.742 251.614 368.336 251.121C363.134 250.875 356.805 251.001 350.431 251.131C344.067 251.26 337.659 251.392 332.334 251.151L332.335 251.15C327.943 250.998 321.084 250.841 314.775 250.857C311.62 250.866 308.606 250.918 306.11 251.037C303.803 251.147 301.975 251.315 300.885 251.545C300.871 251.612 300.854 251.692 300.84 251.785C300.798 252.062 300.76 252.421 300.727 252.815C300.66 253.603 300.618 254.502 300.608 255.107C300.481 263.07 300.354 266.032 300.935 273.414C300.952 273.63 300.971 273.721 300.99 273.766C300.994 273.774 300.988 273.775 301.024 273.791C301.092 273.82 301.231 273.853 301.516 273.871C301.792 273.889 302.16 273.89 302.659 273.883C304.656 273.852 308.511 273.686 315.948 274.003C330.784 274.635 359.407 274.149 375.595 274.375C391.76 274.6 395.186 274.489 397.13 274.286C397.666 274.23 398.038 274.215 398.378 274.156C398.697 274.101 398.879 274.022 399.007 273.901C399.135 273.781 399.27 273.56 399.366 273.099C399.462 272.634 399.509 271.974 399.498 271.025C399.434 265.55 399.435 260.697 399.435 257.09C399.435 255.286 399.435 253.795 399.427 252.693C399.42 251.715 399.404 251.076 399.383 250.789C399.374 250.785 399.365 250.779 399.354 250.774C399.222 250.718 399.003 250.664 398.689 250.619C398.07 250.531 397.21 250.5 396.249 250.5Z" fill="#84B099" stroke="black" stroke-linecap="round" stroke-linejoin="round"/>
<path d="M703.751 427.5C704.708 427.5 705.741 427.527 706.7 427.555C707.654 427.582 708.541 427.61 709.188 427.61V427.609C713.756 427.795 727.435 427.705 734.507 427.61C748.996 427.416 755.987 427.61 767.624 428.076H767.628C774.07 428.284 780.953 428.143 786.757 428.072C789.662 428.037 792.294 428.019 794.473 428.071C796.48 428.119 798.069 428.228 799.125 428.425C799.136 428.475 799.15 428.532 799.161 428.598C799.202 428.839 799.24 429.154 799.273 429.502C799.339 430.196 799.382 430.989 799.392 431.522C799.519 438.569 799.646 441.186 799.065 447.712C799.05 447.889 799.031 447.956 799.02 447.982C799.014 447.985 799.007 447.99 798.995 447.994C798.921 448.023 798.775 448.052 798.488 448.068C798.21 448.084 797.84 448.085 797.34 448.078C795.343 448.051 791.489 447.905 784.054 448.186C776.647 448.465 769.927 448.415 763.035 448.32C756.145 448.226 749.079 448.085 740.994 448.185C732.918 448.284 723.867 448.392 716.59 448.452C712.951 448.482 709.757 448.501 707.349 448.5C704.924 448.499 703.33 448.479 702.864 448.436C702.333 448.386 701.954 448.373 701.612 448.32C701.286 448.27 701.098 448.197 700.971 448.091C700.85 447.99 700.723 447.81 700.631 447.419C700.537 447.02 700.491 446.446 700.502 445.609C700.566 440.762 700.565 436.467 700.565 433.274C700.565 431.678 700.565 430.359 700.573 429.385C700.58 428.562 700.594 428.017 700.612 427.752C700.617 427.75 700.622 427.748 700.627 427.746C700.763 427.695 700.987 427.646 701.303 427.606C701.926 427.528 702.789 427.5 703.751 427.5Z" fill="#84B099" stroke="black" stroke-linecap="round" stroke-linejoin="round"/>
<path d="M1596.25 425.5C1595.29 425.5 1594.26 425.53 1593.3 425.562C1592.35 425.592 1591.46 425.624 1590.81 425.624C1590.24 425.624 1588.4 425.747 1586.1 425.872C1583.81 425.996 1581.09 426.122 1578.82 426.122C1576.52 426.122 1578.74 426.614 1568.34 426.121C1563.13 425.875 1556.8 426.001 1550.43 426.131C1544.07 426.26 1537.66 426.392 1532.33 426.151L1532.33 426.15C1527.94 425.998 1521.08 425.841 1514.78 425.857C1511.62 425.866 1508.61 425.918 1506.11 426.037C1503.8 426.147 1501.98 426.315 1500.88 426.545C1500.87 426.612 1500.85 426.692 1500.84 426.785C1500.8 427.062 1500.76 427.421 1500.73 427.815C1500.66 428.603 1500.62 429.502 1500.61 430.107C1500.48 438.07 1500.35 441.032 1500.93 448.414C1500.95 448.63 1500.97 448.721 1500.99 448.766C1500.99 448.774 1500.99 448.775 1501.02 448.791C1501.09 448.82 1501.23 448.853 1501.52 448.871C1501.79 448.889 1502.16 448.89 1502.66 448.883C1504.66 448.852 1508.51 448.686 1515.95 449.003C1530.78 449.635 1559.41 449.149 1575.59 449.375C1591.76 449.6 1595.19 449.489 1597.13 449.286C1597.67 449.23 1598.04 449.215 1598.38 449.156C1598.7 449.101 1598.88 449.022 1599.01 448.901C1599.14 448.781 1599.27 448.56 1599.37 448.099C1599.46 447.634 1599.51 446.974 1599.5 446.025C1599.43 440.55 1599.43 435.697 1599.43 432.09C1599.43 430.286 1599.43 428.795 1599.43 427.693C1599.42 426.715 1599.4 426.076 1599.38 425.789C1599.37 425.785 1599.36 425.779 1599.35 425.774C1599.22 425.718 1599 425.664 1598.69 425.619C1598.07 425.531 1597.21 425.5 1596.25 425.5Z" fill="#84B099" stroke="black" stroke-linecap="round" stroke-linejoin="round"/>
<path d="M897.188 250.5C896.476 250.5 895.705 250.53 894.985 250.562C894.273 250.592 893.601 250.624 893.109 250.624C892.692 250.624 891.331 250.746 889.589 250.872C887.873 250.997 885.83 251.122 884.115 251.122C883.684 251.122 883.484 251.151 883.306 251.184C883.11 251.22 882.889 251.272 882.481 251.306C881.688 251.371 880.151 251.368 876.238 251.121C872.349 250.875 867.613 251.001 862.829 251.131C858.062 251.26 853.249 251.391 849.245 251.15L849.244 251.151C845.953 250.999 840.81 250.841 836.082 250.857C833.718 250.866 831.462 250.918 829.597 251.036C827.912 251.143 826.591 251.303 825.791 251.516C825.78 251.586 825.767 251.67 825.756 251.767C825.724 252.047 825.696 252.409 825.671 252.805C825.621 253.595 825.588 254.497 825.581 255.105C825.485 263.067 825.39 266.035 825.826 273.424C825.839 273.641 825.854 273.748 825.874 273.81C825.875 273.813 825.877 273.817 825.878 273.819C825.904 273.831 825.978 273.857 826.155 273.872C826.35 273.888 826.616 273.89 826.99 273.883C828.485 273.852 831.386 273.686 836.974 274.003C848.098 274.635 869.539 274.15 881.7 274.376C893.832 274.602 896.38 274.488 897.817 274.288C898.243 274.229 898.492 274.218 898.735 274.162C898.94 274.115 899.042 274.053 899.121 273.954C899.215 273.836 899.322 273.606 899.397 273.124C899.472 272.647 899.507 271.976 899.499 271.024C899.451 265.55 899.451 260.697 899.451 257.09C899.451 255.286 899.45 253.795 899.444 252.692C899.439 251.684 899.428 251.027 899.41 250.747C899.335 250.706 899.197 250.657 898.977 250.615C898.533 250.531 897.905 250.5 897.188 250.5Z" fill="#84B099" stroke="black" stroke-linecap="round" stroke-linejoin="round"/>
<path d="M1195.29 250.5C1194.34 250.5 1193.32 250.53 1192.37 250.562C1191.43 250.592 1190.55 250.624 1189.9 250.624C1189.34 250.624 1187.52 250.747 1185.24 250.872C1182.97 250.996 1180.28 251.122 1178.03 251.122C1175.76 251.122 1177.95 251.614 1167.65 251.121C1162.5 250.875 1156.24 251.001 1149.93 251.131C1143.63 251.26 1137.28 251.391 1132.01 251.15C1127.66 250.998 1120.87 250.841 1114.63 250.857C1111.5 250.866 1108.52 250.918 1106.05 251.037C1103.77 251.147 1101.96 251.315 1100.88 251.544C1100.87 251.611 1100.85 251.691 1100.84 251.784C1100.8 252.061 1100.76 252.421 1100.72 252.815C1100.66 253.603 1100.62 254.502 1100.61 255.107C1100.48 263.07 1100.36 266.033 1100.93 273.415C1100.95 273.63 1100.97 273.721 1100.99 273.767C1100.99 273.775 1100.98 273.777 1101.02 273.792C1101.08 273.821 1101.22 273.853 1101.5 273.871C1101.77 273.889 1102.14 273.89 1102.63 273.883C1104.61 273.852 1108.43 273.686 1115.79 274.003C1130.48 274.635 1158.81 274.149 1174.84 274.375C1190.84 274.6 1194.23 274.489 1196.16 274.286C1196.69 274.23 1197.06 274.215 1197.39 274.156C1197.71 274.101 1197.89 274.023 1198.01 273.903C1198.14 273.783 1198.27 273.562 1198.37 273.1C1198.46 272.635 1198.51 271.974 1198.5 271.025C1198.43 265.55 1198.43 260.697 1198.43 257.09C1198.43 255.286 1198.43 253.795 1198.43 252.693C1198.42 251.714 1198.4 251.074 1198.38 250.787C1198.38 250.783 1198.37 250.779 1198.36 250.774C1198.23 250.719 1198.01 250.664 1197.7 250.619C1197.09 250.531 1196.24 250.5 1195.29 250.5Z" fill="#84B099" stroke="black" stroke-linecap="round" stroke-linejoin="round"/>
<path d="M1092.5 250.5C1090.57 250.5 1088.5 250.531 1086.58 250.562C1084.66 250.594 1082.9 250.624 1081.62 250.624C1080.46 250.624 1076.74 250.748 1072.16 250.873C1067.58 250.997 1062.17 251.122 1057.64 251.122C1052.81 251.122 1057.58 251.616 1036.71 251.122C1026.27 250.875 1013.59 251.002 1000.85 251.131C988.111 251.26 975.322 251.392 964.701 251.151L964.702 251.15C955.913 250.998 942.181 250.841 929.549 250.857C917.108 250.874 905.78 251.064 901.267 251.591C901.238 251.657 901.203 251.744 901.17 251.855C901.09 252.119 901.016 252.467 900.95 252.856C900.82 253.634 900.735 254.521 900.716 255.115C900.461 263.08 900.208 266.02 901.366 273.376C901.398 273.575 901.427 273.62 901.441 273.637C901.451 273.648 901.506 273.707 901.758 273.762C902.289 273.876 903.303 273.898 905.33 273.883C909.33 273.852 917.016 273.687 931.865 274.003C961.544 274.635 1018.86 274.15 1051.18 274.375C1083.49 274.6 1090.39 274.49 1094.34 274.284C1095.35 274.231 1096.17 274.212 1096.88 274.15C1097.59 274.089 1098.11 273.991 1098.49 273.813C1098.84 273.647 1099.08 273.407 1099.25 273.009C1099.42 272.586 1099.52 271.964 1099.5 271.031C1099.37 265.552 1099.37 260.697 1099.37 257.09C1099.37 255.285 1099.37 253.797 1099.35 252.697C1099.34 252.148 1099.33 251.7 1099.32 251.361C1099.3 251.142 1099.29 250.986 1099.28 250.882C1099.21 250.859 1099.12 250.831 1098.99 250.804C1098.65 250.729 1098.13 250.669 1097.48 250.623C1096.19 250.531 1094.43 250.5 1092.5 250.5Z" fill="#84B099" stroke="black" stroke-linecap="round" stroke-linejoin="round"/>
<path d="M824.1 375.5C823.906 375.5 823.687 375.526 823.455 375.558C823.246 375.586 822.991 375.624 822.795 375.624C822.812 375.624 822.8 375.623 822.729 375.637C822.669 375.648 822.591 375.665 822.493 375.688C822.305 375.733 822.043 375.798 821.768 375.86C821.217 375.985 820.52 376.122 819.917 376.122C819.899 376.122 819.887 376.122 819.881 376.123C819.88 376.123 819.879 376.124 819.878 376.125C819.848 376.142 819.709 376.24 819.505 376.292C819.139 376.386 818.55 376.357 817.31 376.112C816.14 375.881 814.693 375.999 813.144 376.13C811.644 376.257 810.045 376.395 808.695 376.146L808.694 376.146C807.657 375.997 806.035 375.841 804.552 375.857C803.809 375.866 803.118 375.917 802.559 376.028C802.096 376.12 801.783 376.242 801.599 376.367C801.594 376.457 801.588 376.578 801.583 376.729C801.573 377.017 801.563 377.385 801.555 377.783C801.539 378.579 801.529 379.487 801.526 380.102C801.496 388.062 801.465 391.042 801.604 398.444C801.608 398.64 801.615 398.779 801.624 398.882C802.093 398.85 803.079 398.685 804.91 399.01C806.639 399.316 809.203 399.356 811.861 399.342C814.493 399.328 817.211 399.262 819.17 399.376C821.106 399.488 822.264 399.517 822.991 399.492C823.717 399.468 823.97 399.392 824.124 399.325C824.197 399.294 824.289 399.262 824.312 399.253C824.316 399.251 824.32 399.25 824.323 399.249C824.331 399.231 824.345 399.199 824.359 399.143C824.451 398.783 824.505 397.965 824.5 396.021C824.469 385.064 824.499 376.626 824.469 375.638C824.468 375.608 824.465 375.588 824.462 375.576L824.456 375.561L824.455 375.56C824.454 375.558 824.451 375.557 824.447 375.555C824.407 375.531 824.304 375.5 824.1 375.5Z" fill="#84B099" stroke="black" stroke-linecap="round" stroke-linejoin="round"/>
<path d="M292.499 250.5C290.574 250.5 288.496 250.531 286.578 250.562C284.664 250.594 282.904 250.624 281.625 250.624C280.457 250.624 276.737 250.748 272.155 250.873C267.583 250.997 262.169 251.122 257.642 251.122C252.813 251.122 257.577 251.616 236.708 251.122C226.274 250.875 213.587 251.002 200.847 251.131C188.111 251.26 175.322 251.392 164.701 251.151L164.702 251.15C155.913 250.998 142.181 250.841 129.549 250.857C117.108 250.874 105.78 251.064 101.267 251.591C101.238 251.657 101.203 251.744 101.17 251.855C101.09 252.119 101.016 252.467 100.95 252.856C100.82 253.634 100.735 254.521 100.716 255.115C100.461 263.08 100.208 266.02 101.366 273.376C101.398 273.575 101.427 273.62 101.441 273.637C101.451 273.648 101.506 273.707 101.758 273.762C102.289 273.876 103.303 273.898 105.33 273.883C109.33 273.852 117.016 273.687 131.865 274.003C161.544 274.635 218.856 274.15 251.18 274.375C283.491 274.6 290.395 274.49 294.337 274.284C295.348 274.231 296.173 274.212 296.884 274.15C297.592 274.089 298.108 273.991 298.486 273.813C298.84 273.647 299.084 273.407 299.249 273.009C299.424 272.586 299.519 271.964 299.497 271.031C299.369 265.552 299.369 260.697 299.369 257.09C299.369 255.285 299.368 253.797 299.353 252.697C299.345 252.148 299.333 251.7 299.315 251.361C299.304 251.142 299.289 250.986 299.276 250.882C299.213 250.859 299.121 250.831 298.994 250.804C298.645 250.729 298.134 250.669 297.484 250.623C296.191 250.531 294.427 250.5 292.499 250.5Z" fill="#84B099" stroke="black" stroke-linecap="round" stroke-linejoin="round"/>
<path d="M692.499 425.5C690.574 425.5 688.496 425.531 686.578 425.562C684.664 425.594 682.904 425.624 681.625 425.624C680.457 425.624 676.737 425.748 672.155 425.873C667.583 425.997 662.169 426.122 657.642 426.122C652.813 426.122 657.577 426.616 636.708 426.122C626.274 425.875 613.587 426.002 600.847 426.131C588.111 426.26 575.322 426.392 564.701 426.151L564.702 426.15C555.913 425.998 542.181 425.841 529.549 425.857C517.108 425.874 505.78 426.064 501.267 426.591C501.238 426.657 501.203 426.744 501.17 426.855C501.09 427.119 501.016 427.467 500.95 427.856C500.82 428.634 500.735 429.521 500.716 430.115C500.461 438.08 500.208 441.02 501.366 448.376C501.398 448.575 501.427 448.62 501.441 448.637C501.451 448.648 501.506 448.707 501.758 448.762C502.289 448.876 503.303 448.898 505.33 448.883C509.33 448.852 517.016 448.687 531.865 449.003C561.544 449.635 618.856 449.15 651.18 449.375C683.491 449.6 690.395 449.49 694.337 449.284C695.348 449.231 696.173 449.212 696.884 449.15C697.592 449.089 698.108 448.991 698.486 448.813C698.84 448.647 699.084 448.407 699.249 448.009C699.424 447.586 699.519 446.964 699.497 446.031C699.369 440.552 699.369 435.697 699.369 432.09C699.369 430.285 699.368 428.797 699.353 427.697C699.345 427.148 699.333 426.7 699.315 426.361C699.304 426.142 699.289 425.986 699.276 425.882C699.213 425.859 699.121 425.831 698.994 425.804C698.645 425.729 698.134 425.669 697.484 425.623C696.191 425.531 694.427 425.5 692.499 425.5Z" fill="#84B099" stroke="black" stroke-linecap="round" stroke-linejoin="round"/>
<path d="M1492.5 425.5C1490.57 425.5 1488.5 425.531 1486.58 425.562C1484.66 425.594 1482.9 425.624 1481.62 425.624C1480.46 425.624 1476.74 425.748 1472.16 425.873C1467.58 425.997 1462.17 426.122 1457.64 426.122C1452.81 426.122 1457.58 426.616 1436.71 426.122C1426.27 425.875 1413.59 426.002 1400.85 426.131C1388.11 426.26 1375.32 426.392 1364.7 426.151L1364.7 426.15C1355.91 425.998 1342.18 425.841 1329.55 425.857C1317.11 425.874 1305.78 426.064 1301.27 426.591C1301.24 426.657 1301.2 426.744 1301.17 426.855C1301.09 427.119 1301.02 427.467 1300.95 427.856C1300.82 428.634 1300.73 429.521 1300.72 430.115C1300.46 438.08 1300.21 441.02 1301.37 448.376C1301.4 448.575 1301.43 448.62 1301.44 448.637C1301.45 448.648 1301.51 448.707 1301.76 448.762C1302.29 448.876 1303.3 448.898 1305.33 448.883C1309.33 448.852 1317.02 448.687 1331.87 449.003C1361.54 449.635 1418.86 449.15 1451.18 449.375C1483.49 449.6 1490.39 449.49 1494.34 449.284C1495.35 449.231 1496.17 449.212 1496.88 449.15C1497.59 449.089 1498.11 448.991 1498.49 448.813C1498.84 448.647 1499.08 448.407 1499.25 448.009C1499.42 447.586 1499.52 446.964 1499.5 446.031C1499.37 440.552 1499.37 435.697 1499.37 432.09C1499.37 430.285 1499.37 428.797 1499.35 427.697C1499.34 427.148 1499.33 426.7 1499.32 426.361C1499.3 426.142 1499.29 425.986 1499.28 425.882C1499.21 425.859 1499.12 425.831 1498.99 425.804C1498.65 425.729 1498.13 425.669 1497.48 425.623C1496.19 425.531 1494.43 425.5 1492.5 425.5Z" fill="#84B099" stroke="black" stroke-linecap="round" stroke-linejoin="round"/>
<path d="M1696.25 250.5C1695.29 250.5 1694.26 250.53 1693.3 250.562C1692.35 250.592 1691.46 250.624 1690.81 250.624C1690.24 250.624 1688.4 250.747 1686.1 250.872C1683.81 250.996 1681.09 251.122 1678.82 251.122C1676.52 251.122 1678.74 251.614 1668.34 251.121C1663.13 250.875 1656.8 251.001 1650.43 251.131C1644.07 251.26 1637.66 251.392 1632.33 251.151L1632.33 251.15C1627.94 250.998 1621.08 250.841 1614.78 250.857C1611.62 250.866 1608.61 250.918 1606.11 251.037C1603.8 251.147 1601.98 251.315 1600.88 251.545C1600.87 251.612 1600.85 251.692 1600.84 251.785C1600.8 252.062 1600.76 252.421 1600.73 252.815C1600.66 253.603 1600.62 254.502 1600.61 255.107C1600.48 263.07 1600.35 266.032 1600.93 273.414C1600.95 273.63 1600.97 273.721 1600.99 273.766C1600.99 273.774 1600.99 273.775 1601.02 273.791C1601.09 273.82 1601.23 273.853 1601.52 273.871C1601.79 273.889 1602.16 273.89 1602.66 273.883C1604.66 273.852 1608.51 273.686 1615.95 274.003C1630.78 274.635 1659.41 274.149 1675.59 274.375C1691.76 274.6 1695.19 274.489 1697.13 274.286C1697.67 274.23 1698.04 274.215 1698.38 274.156C1698.7 274.101 1698.88 274.022 1699.01 273.901C1699.14 273.781 1699.27 273.56 1699.37 273.099C1699.46 272.634 1699.51 271.974 1699.5 271.025C1699.43 265.55 1699.43 260.697 1699.43 257.09C1699.43 255.286 1699.43 253.795 1699.43 252.693C1699.42 251.715 1699.4 251.076 1699.38 250.789C1699.37 250.785 1699.36 250.779 1699.35 250.774C1699.22 250.718 1699 250.664 1698.69 250.619C1698.07 250.531 1697.21 250.5 1696.25 250.5Z" fill="#84B099" stroke="black" stroke-linecap="round" stroke-linejoin="round"/>
<path d="M2096.25 425.5C2095.29 425.5 2094.26 425.53 2093.3 425.562C2092.35 425.592 2091.46 425.624 2090.81 425.624C2090.24 425.624 2088.4 425.747 2086.1 425.872C2083.81 425.996 2081.09 426.122 2078.82 426.122C2076.52 426.122 2078.74 426.614 2068.34 426.121C2063.13 425.875 2056.8 426.001 2050.43 426.131C2044.07 426.26 2037.66 426.392 2032.33 426.151L2032.33 426.15C2027.94 425.998 2021.08 425.841 2014.78 425.857C2011.62 425.866 2008.61 425.918 2006.11 426.037C2003.8 426.147 2001.98 426.315 2000.88 426.545C2000.87 426.612 2000.85 426.692 2000.84 426.785C2000.8 427.062 2000.76 427.421 2000.73 427.815C2000.66 428.603 2000.62 429.502 2000.61 430.107C2000.48 438.07 2000.35 441.032 2000.93 448.414C2000.95 448.63 2000.97 448.721 2000.99 448.766C2000.99 448.774 2000.99 448.775 2001.02 448.791C2001.09 448.82 2001.23 448.853 2001.52 448.871C2001.79 448.889 2002.16 448.89 2002.66 448.883C2004.66 448.852 2008.51 448.686 2015.95 449.003C2030.78 449.635 2059.41 449.149 2075.59 449.375C2091.76 449.6 2095.19 449.489 2097.13 449.286C2097.67 449.23 2098.04 449.215 2098.38 449.156C2098.7 449.101 2098.88 449.022 2099.01 448.901C2099.14 448.781 2099.27 448.56 2099.37 448.099C2099.46 447.634 2099.51 446.974 2099.5 446.025C2099.43 440.55 2099.43 435.697 2099.43 432.09C2099.43 430.286 2099.43 428.795 2099.43 427.693C2099.42 426.715 2099.4 426.076 2099.38 425.789C2099.37 425.785 2099.36 425.779 2099.35 425.774C2099.22 425.718 2099 425.664 2098.69 425.619C2098.07 425.531 2097.21 425.5 2096.25 425.5Z" fill="#84B099" stroke="black" stroke-linecap="round" stroke-linejoin="round"/>
<path d="M2896.25 425.5C2895.29 425.5 2894.26 425.53 2893.3 425.562C2892.35 425.592 2891.46 425.624 2890.81 425.624C2890.24 425.624 2888.4 425.747 2886.1 425.872C2883.81 425.996 2881.09 426.122 2878.82 426.122C2876.52 426.122 2878.74 426.614 2868.34 426.121C2863.13 425.875 2856.8 426.001 2850.43 426.131C2844.07 426.26 2837.66 426.392 2832.33 426.151L2832.33 426.15C2827.94 425.998 2821.08 425.841 2814.78 425.857C2811.62 425.866 2808.61 425.918 2806.11 426.037C2803.8 426.147 2801.98 426.315 2800.88 426.545C2800.87 426.612 2800.85 426.692 2800.84 426.785C2800.8 427.062 2800.76 427.421 2800.73 427.815C2800.66 428.603 2800.62 429.502 2800.61 430.107C2800.48 438.07 2800.35 441.032 2800.93 448.414C2800.95 448.63 2800.97 448.721 2800.99 448.766C2800.99 448.774 2800.99 448.775 2801.02 448.791C2801.09 448.82 2801.23 448.853 2801.52 448.871C2801.79 448.889 2802.16 448.89 2802.66 448.883C2804.66 448.852 2808.51 448.686 2815.95 449.003C2830.78 449.635 2859.41 449.149 2875.59 449.375C2891.76 449.6 2895.19 449.489 2897.13 449.286C2897.67 449.23 2898.04 449.215 2898.38 449.156C2898.7 449.101 2898.88 449.022 2899.01 448.901C2899.14 448.781 2899.27 448.56 2899.37 448.099C2899.46 447.634 2899.51 446.974 2899.5 446.025C2899.43 440.55 2899.43 435.697 2899.43 432.09C2899.43 430.286 2899.43 428.795 2899.43 427.693C2899.42 426.715 2899.4 426.076 2899.38 425.789C2899.37 425.785 2899.36 425.779 2899.35 425.774C2899.22 425.718 2899 425.664 2898.69 425.619C2898.07 425.531 2897.21 425.5 2896.25 425.5Z" fill="#84B099" stroke="black" stroke-linecap="round" stroke-linejoin="round"/>
<path d="M1996.25 250.5C1995.29 250.5 1994.26 250.53 1993.3 250.562C1992.35 250.592 1991.46 250.624 1990.81 250.624C1990.24 250.624 1988.4 250.747 1986.1 250.872C1983.81 250.996 1981.09 251.122 1978.82 251.122C1976.52 251.122 1978.74 251.614 1968.34 251.121C1963.13 250.875 1956.8 251.001 1950.43 251.131C1944.07 251.26 1937.66 251.392 1932.33 251.151L1932.33 251.15C1927.94 250.998 1921.08 250.841 1914.78 250.857C1911.62 250.866 1908.61 250.918 1906.11 251.037C1903.8 251.147 1901.98 251.315 1900.88 251.545C1900.87 251.612 1900.85 251.692 1900.84 251.785C1900.8 252.062 1900.76 252.421 1900.73 252.815C1900.66 253.603 1900.62 254.502 1900.61 255.107C1900.48 263.07 1900.35 266.032 1900.93 273.414C1900.95 273.63 1900.97 273.721 1900.99 273.766C1900.99 273.774 1900.99 273.775 1901.02 273.791C1901.09 273.82 1901.23 273.853 1901.52 273.871C1901.79 273.889 1902.16 273.89 1902.66 273.883C1904.66 273.852 1908.51 273.686 1915.95 274.003C1930.78 274.635 1959.41 274.149 1975.59 274.375C1991.76 274.6 1995.19 274.489 1997.13 274.286C1997.67 274.23 1998.04 274.215 1998.38 274.156C1998.7 274.101 1998.88 274.022 1999.01 273.901C1999.14 273.781 1999.27 273.56 1999.37 273.099C1999.46 272.634 1999.51 271.974 1999.5 271.025C1999.43 265.55 1999.43 260.697 1999.43 257.09C1999.43 255.286 1999.43 253.795 1999.43 252.693C1999.42 251.715 1999.4 251.076 1999.38 250.789C1999.37 250.785 1999.36 250.779 1999.35 250.774C1999.22 250.718 1999 250.664 1998.69 250.619C1998.07 250.531 1997.21 250.5 1996.25 250.5Z" fill="#84B099" stroke="black" stroke-linecap="round" stroke-linejoin="round"/>
<path d="M2303.75 427.5C2304.71 427.5 2305.74 427.527 2306.7 427.555C2307.65 427.582 2308.54 427.61 2309.19 427.61V427.609C2313.76 427.795 2327.43 427.705 2334.51 427.61C2349 427.416 2355.99 427.61 2367.62 428.076H2367.63C2374.07 428.284 2380.95 428.143 2386.76 428.072C2389.66 428.037 2392.29 428.019 2394.47 428.071C2396.48 428.119 2398.07 428.228 2399.12 428.425C2399.14 428.475 2399.15 428.532 2399.16 428.598C2399.2 428.839 2399.24 429.154 2399.27 429.502C2399.34 430.196 2399.38 430.989 2399.39 431.522C2399.52 438.569 2399.65 441.186 2399.07 447.712C2399.05 447.889 2399.03 447.956 2399.02 447.982C2399.01 447.985 2399.01 447.99 2399 447.994C2398.92 448.023 2398.77 448.052 2398.49 448.068C2398.21 448.084 2397.84 448.085 2397.34 448.078C2395.34 448.051 2391.49 447.905 2384.05 448.186C2376.65 448.465 2369.93 448.415 2363.04 448.32C2356.14 448.226 2349.08 448.085 2340.99 448.185C2332.92 448.284 2323.87 448.392 2316.59 448.452C2312.95 448.482 2309.76 448.501 2307.35 448.5C2304.92 448.499 2303.33 448.479 2302.86 448.436C2302.33 448.386 2301.95 448.373 2301.61 448.32C2301.29 448.27 2301.1 448.197 2300.97 448.091C2300.85 447.99 2300.72 447.81 2300.63 447.419C2300.54 447.02 2300.49 446.446 2300.5 445.609C2300.57 440.762 2300.57 436.467 2300.57 433.274C2300.57 431.678 2300.57 430.359 2300.57 429.385C2300.58 428.562 2300.59 428.017 2300.61 427.752C2300.62 427.75 2300.62 427.748 2300.63 427.746C2300.76 427.695 2300.99 427.646 2301.3 427.606C2301.93 427.528 2302.79 427.5 2303.75 427.5Z" fill="#84B099" stroke="black" stroke-linecap="round" stroke-linejoin="round"/>
<path d="M3196.25 425.5C3195.29 425.5 3194.26 425.53 3193.3 425.562C3192.35 425.592 3191.46 425.624 3190.81 425.624C3190.24 425.624 3188.4 425.747 3186.1 425.872C3183.81 425.996 3181.09 426.122 3178.82 426.122C3176.52 426.122 3178.74 426.614 3168.34 426.121C3163.13 425.875 3156.8 426.001 3150.43 426.131C3144.07 426.26 3137.66 426.392 3132.33 426.151L3132.33 426.15C3127.94 425.998 3121.08 425.841 3114.78 425.857C3111.62 425.866 3108.61 425.918 3106.11 426.037C3103.8 426.147 3101.98 426.315 3100.88 426.545C3100.87 426.612 3100.85 426.692 3100.84 426.785C3100.8 427.062 3100.76 427.421 3100.73 427.815C3100.66 428.603 3100.62 429.502 3100.61 430.107C3100.48 438.07 3100.35 441.032 3100.93 448.414C3100.95 448.63 3100.97 448.721 3100.99 448.766C3100.99 448.774 3100.99 448.775 3101.02 448.791C3101.09 448.82 3101.23 448.853 3101.52 448.871C3101.79 448.889 3102.16 448.89 3102.66 448.883C3104.66 448.852 3108.51 448.686 3115.95 449.003C3130.78 449.635 3159.41 449.149 3175.59 449.375C3191.76 449.6 3195.19 449.489 3197.13 449.286C3197.67 449.23 3198.04 449.215 3198.38 449.156C3198.7 449.101 3198.88 449.022 3199.01 448.901C3199.14 448.781 3199.27 448.56 3199.37 448.099C3199.46 447.634 3199.51 446.974 3199.5 446.025C3199.43 440.55 3199.43 435.697 3199.43 432.09C3199.43 430.286 3199.43 428.795 3199.43 427.693C3199.42 426.715 3199.4 426.076 3199.38 425.789C3199.37 425.785 3199.36 425.779 3199.35 425.774C3199.22 425.718 3199 425.664 3198.69 425.619C3198.07 425.531 3197.21 425.5 3196.25 425.5Z" fill="#84B099" stroke="black" stroke-linecap="round" stroke-linejoin="round"/>
<path d="M2497.19 250.5C2496.48 250.5 2495.7 250.53 2494.99 250.562C2494.27 250.592 2493.6 250.624 2493.11 250.624C2492.69 250.624 2491.33 250.746 2489.59 250.872C2487.87 250.997 2485.83 251.122 2484.12 251.122C2483.68 251.122 2483.48 251.151 2483.31 251.184C2483.11 251.22 2482.89 251.272 2482.48 251.306C2481.69 251.371 2480.15 251.368 2476.24 251.121C2472.35 250.875 2467.61 251.001 2462.83 251.131C2458.06 251.26 2453.25 251.391 2449.25 251.15L2449.24 251.151C2445.95 250.999 2440.81 250.841 2436.08 250.857C2433.72 250.866 2431.46 250.918 2429.6 251.036C2427.91 251.143 2426.59 251.303 2425.79 251.516C2425.78 251.586 2425.77 251.67 2425.76 251.767C2425.72 252.047 2425.7 252.409 2425.67 252.805C2425.62 253.595 2425.59 254.497 2425.58 255.105C2425.49 263.067 2425.39 266.035 2425.83 273.424C2425.84 273.641 2425.85 273.748 2425.87 273.81C2425.88 273.813 2425.88 273.817 2425.88 273.819C2425.9 273.831 2425.98 273.857 2426.16 273.872C2426.35 273.888 2426.62 273.89 2426.99 273.883C2428.49 273.852 2431.39 273.686 2436.97 274.003C2448.1 274.635 2469.54 274.15 2481.7 274.376C2493.83 274.602 2496.38 274.488 2497.82 274.288C2498.24 274.229 2498.49 274.218 2498.74 274.162C2498.94 274.115 2499.04 274.053 2499.12 273.954C2499.22 273.836 2499.32 273.606 2499.4 273.124C2499.47 272.647 2499.51 271.976 2499.5 271.024C2499.45 265.55 2499.45 260.697 2499.45 257.09C2499.45 255.286 2499.45 253.795 2499.44 252.692C2499.44 251.684 2499.43 251.027 2499.41 250.747C2499.34 250.706 2499.2 250.657 2498.98 250.615C2498.53 250.531 2497.91 250.5 2497.19 250.5Z" fill="#84B099" stroke="black" stroke-linecap="round" stroke-linejoin="round"/>
<path d="M2795.29 250.5C2794.34 250.5 2793.32 250.53 2792.37 250.562C2791.43 250.592 2790.55 250.624 2789.9 250.624C2789.34 250.624 2787.52 250.747 2785.24 250.872C2782.97 250.996 2780.28 251.122 2778.03 251.122C2775.76 251.122 2777.95 251.614 2767.65 251.121C2762.5 250.875 2756.24 251.001 2749.93 251.131C2743.63 251.26 2737.28 251.391 2732.01 251.15C2727.66 250.998 2720.87 250.841 2714.63 250.857C2711.5 250.866 2708.52 250.918 2706.05 251.037C2703.77 251.147 2701.96 251.315 2700.88 251.544C2700.87 251.611 2700.85 251.691 2700.84 251.784C2700.8 252.061 2700.76 252.421 2700.72 252.815C2700.66 253.603 2700.62 254.502 2700.61 255.107C2700.48 263.07 2700.36 266.033 2700.93 273.415C2700.95 273.63 2700.97 273.721 2700.99 273.767C2700.99 273.775 2700.98 273.777 2701.02 273.792C2701.08 273.821 2701.22 273.853 2701.5 273.871C2701.77 273.889 2702.14 273.89 2702.63 273.883C2704.61 273.852 2708.43 273.686 2715.79 274.003C2730.48 274.635 2758.81 274.149 2774.84 274.375C2790.84 274.6 2794.23 274.489 2796.16 274.286C2796.69 274.23 2797.06 274.215 2797.39 274.156C2797.71 274.101 2797.89 274.023 2798.01 273.903C2798.14 273.783 2798.27 273.562 2798.37 273.1C2798.46 272.635 2798.51 271.974 2798.5 271.025C2798.43 265.55 2798.43 260.697 2798.43 257.09C2798.43 255.286 2798.43 253.795 2798.43 252.693C2798.42 251.714 2798.4 251.074 2798.38 250.787C2798.38 250.783 2798.37 250.779 2798.36 250.774C2798.23 250.719 2798.01 250.664 2797.7 250.619C2797.09 250.531 2796.24 250.5 2795.29 250.5Z" fill="#84B099" stroke="black" stroke-linecap="round" stroke-linejoin="round"/>
<path d="M2692.5 250.5C2690.57 250.5 2688.5 250.531 2686.58 250.562C2684.66 250.594 2682.9 250.624 2681.62 250.624C2680.46 250.624 2676.74 250.748 2672.16 250.873C2667.58 250.997 2662.17 251.122 2657.64 251.122C2652.81 251.122 2657.58 251.616 2636.71 251.122C2626.27 250.875 2613.59 251.002 2600.85 251.131C2588.11 251.26 2575.32 251.392 2564.7 251.151L2564.7 251.15C2555.91 250.998 2542.18 250.841 2529.55 250.857C2517.11 250.874 2505.78 251.064 2501.27 251.591C2501.24 251.657 2501.2 251.744 2501.17 251.855C2501.09 252.119 2501.02 252.467 2500.95 252.856C2500.82 253.634 2500.73 254.521 2500.72 255.115C2500.46 263.08 2500.21 266.02 2501.37 273.376C2501.4 273.575 2501.43 273.62 2501.44 273.637C2501.45 273.648 2501.51 273.707 2501.76 273.762C2502.29 273.876 2503.3 273.898 2505.33 273.883C2509.33 273.852 2517.02 273.687 2531.87 274.003C2561.54 274.635 2618.86 274.15 2651.18 274.375C2683.49 274.6 2690.39 274.49 2694.34 274.284C2695.35 274.231 2696.17 274.212 2696.88 274.15C2697.59 274.089 2698.11 273.991 2698.49 273.813C2698.84 273.647 2699.08 273.407 2699.25 273.009C2699.42 272.586 2699.52 271.964 2699.5 271.031C2699.37 265.552 2699.37 260.697 2699.37 257.09C2699.37 255.285 2699.37 253.797 2699.35 252.697C2699.34 252.148 2699.33 251.7 2699.32 251.361C2699.3 251.142 2699.29 250.986 2699.28 250.882C2699.21 250.859 2699.12 250.831 2698.99 250.804C2698.65 250.729 2698.13 250.669 2697.48 250.623C2696.19 250.531 2694.43 250.5 2692.5 250.5Z" fill="#84B099" stroke="black" stroke-linecap="round" stroke-linejoin="round"/>
<path d="M2424.1 375.5C2423.91 375.5 2423.69 375.526 2423.46 375.558C2423.25 375.586 2422.99 375.624 2422.79 375.624C2422.81 375.624 2422.8 375.623 2422.73 375.637C2422.67 375.648 2422.59 375.665 2422.49 375.688C2422.31 375.733 2422.04 375.798 2421.77 375.86C2421.22 375.985 2420.52 376.122 2419.92 376.122C2419.9 376.122 2419.89 376.122 2419.88 376.123C2419.88 376.123 2419.88 376.124 2419.88 376.125C2419.85 376.142 2419.71 376.24 2419.5 376.292C2419.14 376.386 2418.55 376.357 2417.31 376.112C2416.14 375.881 2414.69 375.999 2413.14 376.13C2411.64 376.257 2410.04 376.395 2408.7 376.146L2408.69 376.146C2407.66 375.997 2406.04 375.841 2404.55 375.857C2403.81 375.866 2403.12 375.917 2402.56 376.028C2402.1 376.12 2401.78 376.242 2401.6 376.367C2401.59 376.457 2401.59 376.578 2401.58 376.729C2401.57 377.017 2401.56 377.385 2401.55 377.783C2401.54 378.579 2401.53 379.487 2401.53 380.102C2401.5 388.062 2401.46 391.042 2401.6 398.444C2401.61 398.64 2401.61 398.779 2401.62 398.882C2402.09 398.85 2403.08 398.685 2404.91 399.01C2406.64 399.316 2409.2 399.356 2411.86 399.342C2414.49 399.328 2417.21 399.262 2419.17 399.376C2421.11 399.488 2422.26 399.517 2422.99 399.492C2423.72 399.468 2423.97 399.392 2424.12 399.325C2424.2 399.294 2424.29 399.262 2424.31 399.253C2424.32 399.251 2424.32 399.25 2424.32 399.249C2424.33 399.231 2424.35 399.199 2424.36 399.143C2424.45 398.783 2424.51 397.965 2424.5 396.021C2424.47 385.064 2424.5 376.626 2424.47 375.638C2424.47 375.608 2424.46 375.588 2424.46 375.576L2424.46 375.561L2424.46 375.56C2424.45 375.558 2424.45 375.557 2424.45 375.555C2424.41 375.531 2424.3 375.5 2424.1 375.5Z" fill="#84B099" stroke="black" stroke-linecap="round" stroke-linejoin="round"/>
<path d="M1892.5 250.5C1890.57 250.5 1888.5 250.531 1886.58 250.562C1884.66 250.594 1882.9 250.624 1881.62 250.624C1880.46 250.624 1876.74 250.748 1872.16 250.873C1867.58 250.997 1862.17 251.122 1857.64 251.122C1852.81 251.122 1857.58 251.616 1836.71 251.122C1826.27 250.875 1813.59 251.002 1800.85 251.131C1788.11 251.26 1775.32 251.392 1764.7 251.151L1764.7 251.15C1755.91 250.998 1742.18 250.841 1729.55 250.857C1717.11 250.874 1705.78 251.064 1701.27 251.591C1701.24 251.657 1701.2 251.744 1701.17 251.855C1701.09 252.119 1701.02 252.467 1700.95 252.856C1700.82 253.634 1700.73 254.521 1700.72 255.115C1700.46 263.08 1700.21 266.02 1701.37 273.376C1701.4 273.575 1701.43 273.62 1701.44 273.637C1701.45 273.648 1701.51 273.707 1701.76 273.762C1702.29 273.876 1703.3 273.898 1705.33 273.883C1709.33 273.852 1717.02 273.687 1731.87 274.003C1761.54 274.635 1818.86 274.15 1851.18 274.375C1883.49 274.6 1890.39 274.49 1894.34 274.284C1895.35 274.231 1896.17 274.212 1896.88 274.15C1897.59 274.089 1898.11 273.991 1898.49 273.813C1898.84 273.647 1899.08 273.407 1899.25 273.009C1899.42 272.586 1899.52 271.964 1899.5 271.031C1899.37 265.552 1899.37 260.697 1899.37 257.09C1899.37 255.285 1899.37 253.797 1899.35 252.697C1899.34 252.148 1899.33 251.7 1899.32 251.361C1899.3 251.142 1899.29 250.986 1899.28 250.882C1899.21 250.859 1899.12 250.831 1898.99 250.804C1898.65 250.729 1898.13 250.669 1897.48 250.623C1896.19 250.531 1894.43 250.5 1892.5 250.5Z" fill="#84B099" stroke="black" stroke-linecap="round" stroke-linejoin="round"/>
<path d="M2292.5 425.5C2290.57 425.5 2288.5 425.531 2286.58 425.562C2284.66 425.594 2282.9 425.624 2281.62 425.624C2280.46 425.624 2276.74 425.748 2272.16 425.873C2267.58 425.997 2262.17 426.122 2257.64 426.122C2252.81 426.122 2257.58 426.616 2236.71 426.122C2226.27 425.875 2213.59 426.002 2200.85 426.131C2188.11 426.26 2175.32 426.392 2164.7 426.151L2164.7 426.15C2155.91 425.998 2142.18 425.841 2129.55 425.857C2117.11 425.874 2105.78 426.064 2101.27 426.591C2101.24 426.657 2101.2 426.744 2101.17 426.855C2101.09 427.119 2101.02 427.467 2100.95 427.856C2100.82 428.634 2100.73 429.521 2100.72 430.115C2100.46 438.08 2100.21 441.02 2101.37 448.376C2101.4 448.575 2101.43 448.62 2101.44 448.637C2101.45 448.648 2101.51 448.707 2101.76 448.762C2102.29 448.876 2103.3 448.898 2105.33 448.883C2109.33 448.852 2117.02 448.687 2131.87 449.003C2161.54 449.635 2218.86 449.15 2251.18 449.375C2283.49 449.6 2290.39 449.49 2294.34 449.284C2295.35 449.231 2296.17 449.212 2296.88 449.15C2297.59 449.089 2298.11 448.991 2298.49 448.813C2298.84 448.647 2299.08 448.407 2299.25 448.009C2299.42 447.586 2299.52 446.964 2299.5 446.031C2299.37 440.552 2299.37 435.697 2299.37 432.09C2299.37 430.285 2299.37 428.797 2299.35 427.697C2299.34 427.148 2299.33 426.7 2299.32 426.361C2299.3 426.142 2299.29 425.986 2299.28 425.882C2299.21 425.859 2299.12 425.831 2298.99 425.804C2298.65 425.729 2298.13 425.669 2297.48 425.623C2296.19 425.531 2294.43 425.5 2292.5 425.5Z" fill="#84B099" stroke="black" stroke-linecap="round" stroke-linejoin="round"/>
<path d="M3092.5 425.5C3090.57 425.5 3088.5 425.531 3086.58 425.562C3084.66 425.594 3082.9 425.624 3081.62 425.624C3080.46 425.624 3076.74 425.748 3072.16 425.873C3067.58 425.997 3062.17 426.122 3057.64 426.122C3052.81 426.122 3057.58 426.616 3036.71 426.122C3026.27 425.875 3013.59 426.002 3000.85 426.131C2988.11 426.26 2975.32 426.392 2964.7 426.151L2964.7 426.15C2955.91 425.998 2942.18 425.841 2929.55 425.857C2917.11 425.874 2905.78 426.064 2901.27 426.591C2901.24 426.657 2901.2 426.744 2901.17 426.855C2901.09 427.119 2901.02 427.467 2900.95 427.856C2900.82 428.634 2900.73 429.521 2900.72 430.115C2900.46 438.08 2900.21 441.02 2901.37 448.376C2901.4 448.575 2901.43 448.62 2901.44 448.637C2901.45 448.648 2901.51 448.707 2901.76 448.762C2902.29 448.876 2903.3 448.898 2905.33 448.883C2909.33 448.852 2917.02 448.687 2931.87 449.003C2961.54 449.635 3018.86 449.15 3051.18 449.375C3083.49 449.6 3090.39 449.49 3094.34 449.284C3095.35 449.231 3096.17 449.212 3096.88 449.15C3097.59 449.089 3098.11 448.991 3098.49 448.813C3098.84 448.647 3099.08 448.407 3099.25 448.009C3099.42 447.586 3099.52 446.964 3099.5 446.031C3099.37 440.552 3099.37 435.697 3099.37 432.09C3099.37 430.285 3099.37 428.797 3099.35 427.697C3099.34 427.148 3099.33 426.7 3099.32 426.361C3099.3 426.142 3099.29 425.986 3099.28 425.882C3099.21 425.859 3099.12 425.831 3098.99 425.804C3098.65 425.729 3098.13 425.669 3097.48 425.623C3096.19 425.531 3094.43 425.5 3092.5 425.5Z" fill="#84B099" stroke="black" stroke-linecap="round" stroke-linejoin="round"/>
<path d="M3296.25 250.5C3295.29 250.5 3294.26 250.53 3293.3 250.562C3292.35 250.592 3291.46 250.624 3290.81 250.624C3290.24 250.624 3288.4 250.747 3286.1 250.872C3283.81 250.996 3281.09 251.122 3278.82 251.122C3276.52 251.122 3278.74 251.614 3268.34 251.121C3263.13 250.875 3256.8 251.001 3250.43 251.131C3244.07 251.26 3237.66 251.392 3232.33 251.151L3232.33 251.15C3227.94 250.998 3221.08 250.841 3214.78 250.857C3211.62 250.866 3208.61 250.918 3206.11 251.037C3203.8 251.147 3201.98 251.315 3200.88 251.545C3200.87 251.612 3200.85 251.692 3200.84 251.785C3200.8 252.062 3200.76 252.421 3200.73 252.815C3200.66 253.603 3200.62 254.502 3200.61 255.107C3200.48 263.07 3200.35 266.032 3200.93 273.414C3200.95 273.63 3200.97 273.721 3200.99 273.766C3200.99 273.774 3200.99 273.775 3201.02 273.791C3201.09 273.82 3201.23 273.853 3201.52 273.871C3201.79 273.889 3202.16 273.89 3202.66 273.883C3204.66 273.852 3208.51 273.686 3215.95 274.003C3230.78 274.635 3259.41 274.149 3275.59 274.375C3291.76 274.6 3295.19 274.489 3297.13 274.286C3297.67 274.23 3298.04 274.215 3298.38 274.156C3298.7 274.101 3298.88 274.022 3299.01 273.901C3299.14 273.781 3299.27 273.56 3299.37 273.099C3299.46 272.634 3299.51 271.974 3299.5 271.025C3299.43 265.55 3299.43 260.697 3299.43 257.09C3299.43 255.286 3299.43 253.795 3299.43 252.693C3299.42 251.715 3299.4 251.076 3299.38 250.789C3299.37 250.785 3299.36 250.779 3299.35 250.774C3299.22 250.718 3299 250.664 3298.69 250.619C3298.07 250.531 3297.21 250.5 3296.25 250.5Z" fill="#84B099" stroke="black" stroke-linecap="round" stroke-linejoin="round"/>
<path d="M3696.25 425.5C3695.29 425.5 3694.26 425.53 3693.3 425.562C3692.35 425.592 3691.46 425.624 3690.81 425.624C3690.24 425.624 3688.4 425.747 3686.1 425.872C3683.81 425.996 3681.09 426.122 3678.82 426.122C3676.52 426.122 3678.74 426.614 3668.34 426.121C3663.13 425.875 3656.8 426.001 3650.43 426.131C3644.07 426.26 3637.66 426.392 3632.33 426.151L3632.33 426.15C3627.94 425.998 3621.08 425.841 3614.78 425.857C3611.62 425.866 3608.61 425.918 3606.11 426.037C3603.8 426.147 3601.98 426.315 3600.88 426.545C3600.87 426.612 3600.85 426.692 3600.84 426.785C3600.8 427.062 3600.76 427.421 3600.73 427.815C3600.66 428.603 3600.62 429.502 3600.61 430.107C3600.48 438.07 3600.35 441.032 3600.93 448.414C3600.95 448.63 3600.97 448.721 3600.99 448.766C3600.99 448.774 3600.99 448.775 3601.02 448.791C3601.09 448.82 3601.23 448.853 3601.52 448.871C3601.79 448.889 3602.16 448.89 3602.66 448.883C3604.66 448.852 3608.51 448.686 3615.95 449.003C3630.78 449.635 3659.41 449.149 3675.59 449.375C3691.76 449.6 3695.19 449.489 3697.13 449.286C3697.67 449.23 3698.04 449.215 3698.38 449.156C3698.7 449.101 3698.88 449.022 3699.01 448.901C3699.14 448.781 3699.27 448.56 3699.37 448.099C3699.46 447.634 3699.51 446.974 3699.5 446.025C3699.43 440.55 3699.43 435.697 3699.43 432.09C3699.43 430.286 3699.43 428.795 3699.43 427.693C3699.42 426.715 3699.4 426.076 3699.38 425.789C3699.37 425.785 3699.36 425.779 3699.35 425.774C3699.22 425.718 3699 425.664 3698.69 425.619C3698.07 425.531 3697.21 425.5 3696.25 425.5Z" fill="#84B099" stroke="black" stroke-linecap="round" stroke-linejoin="round"/>
<path d="M4496.25 425.5C4495.29 425.5 4494.26 425.53 4493.3 425.562C4492.35 425.592 4491.46 425.624 4490.81 425.624C4490.24 425.624 4488.4 425.747 4486.1 425.872C4483.81 425.996 4481.09 426.122 4478.82 426.122C4476.52 426.122 4478.74 426.614 4468.34 426.121C4463.13 425.875 4456.8 426.001 4450.43 426.131C4444.07 426.26 4437.66 426.392 4432.33 426.151L4432.33 426.15C4427.94 425.998 4421.08 425.841 4414.78 425.857C4411.62 425.866 4408.61 425.918 4406.11 426.037C4403.8 426.147 4401.98 426.315 4400.88 426.545C4400.87 426.612 4400.85 426.692 4400.84 426.785C4400.8 427.062 4400.76 427.421 4400.73 427.815C4400.66 428.603 4400.62 429.502 4400.61 430.107C4400.48 438.07 4400.35 441.032 4400.93 448.414C4400.95 448.63 4400.97 448.721 4400.99 448.766C4400.99 448.774 4400.99 448.775 4401.02 448.791C4401.09 448.82 4401.23 448.853 4401.52 448.871C4401.79 448.889 4402.16 448.89 4402.66 448.883C4404.66 448.852 4408.51 448.686 4415.95 449.003C4430.78 449.635 4459.41 449.149 4475.59 449.375C4491.76 449.6 4495.19 449.489 4497.13 449.286C4497.67 449.23 4498.04 449.215 4498.38 449.156C4498.7 449.101 4498.88 449.022 4499.01 448.901C4499.14 448.781 4499.27 448.56 4499.37 448.099C4499.46 447.634 4499.51 446.974 4499.5 446.025C4499.43 440.55 4499.43 435.697 4499.43 432.09C4499.43 430.286 4499.43 428.795 4499.43 427.693C4499.42 426.715 4499.4 426.076 4499.38 425.789C4499.37 425.785 4499.36 425.779 4499.35 425.774C4499.22 425.718 4499 425.664 4498.69 425.619C4498.07 425.531 4497.21 425.5 4496.25 425.5Z" fill="#84B099" stroke="black" stroke-linecap="round" stroke-linejoin="round"/>
<path d="M3596.25 250.5C3595.29 250.5 3594.26 250.53 3593.3 250.562C3592.35 250.592 3591.46 250.624 3590.81 250.624C3590.24 250.624 3588.4 250.747 3586.1 250.872C3583.81 250.996 3581.09 251.122 3578.82 251.122C3576.52 251.122 3578.74 251.614 3568.34 251.121C3563.13 250.875 3556.8 251.001 3550.43 251.131C3544.07 251.26 3537.66 251.392 3532.33 251.151L3532.33 251.15C3527.94 250.998 3521.08 250.841 3514.78 250.857C3511.62 250.866 3508.61 250.918 3506.11 251.037C3503.8 251.147 3501.98 251.315 3500.88 251.545C3500.87 251.612 3500.85 251.692 3500.84 251.785C3500.8 252.062 3500.76 252.421 3500.73 252.815C3500.66 253.603 3500.62 254.502 3500.61 255.107C3500.48 263.07 3500.35 266.032 3500.93 273.414C3500.95 273.63 3500.97 273.721 3500.99 273.766C3500.99 273.774 3500.99 273.775 3501.02 273.791C3501.09 273.82 3501.23 273.853 3501.52 273.871C3501.79 273.889 3502.16 273.89 3502.66 273.883C3504.66 273.852 3508.51 273.686 3515.95 274.003C3530.78 274.635 3559.41 274.149 3575.59 274.375C3591.76 274.6 3595.19 274.489 3597.13 274.286C3597.67 274.23 3598.04 274.215 3598.38 274.156C3598.7 274.101 3598.88 274.022 3599.01 273.901C3599.14 273.781 3599.27 273.56 3599.37 273.099C3599.46 272.634 3599.51 271.974 3599.5 271.025C3599.43 265.55 3599.43 260.697 3599.43 257.09C3599.43 255.286 3599.43 253.795 3599.43 252.693C3599.42 251.715 3599.4 251.076 3599.38 250.789C3599.37 250.785 3599.36 250.779 3599.35 250.774C3599.22 250.718 3599 250.664 3598.69 250.619C3598.07 250.531 3597.21 250.5 3596.25 250.5Z" fill="#84B099" stroke="black" stroke-linecap="round" stroke-linejoin="round"/>
<path d="M3903.75 427.5C3904.71 427.5 3905.74 427.527 3906.7 427.555C3907.65 427.582 3908.54 427.61 3909.19 427.61V427.609C3913.76 427.795 3927.43 427.705 3934.51 427.61C3949 427.416 3955.99 427.61 3967.62 428.076H3967.63C3974.07 428.284 3980.95 428.143 3986.76 428.072C3989.66 428.037 3992.29 428.019 3994.47 428.071C3996.48 428.119 3998.07 428.228 3999.12 428.425C3999.14 428.475 3999.15 428.532 3999.16 428.598C3999.2 428.839 3999.24 429.154 3999.27 429.502C3999.34 430.196 3999.38 430.989 3999.39 431.522C3999.52 438.569 3999.65 441.186 3999.07 447.712C3999.05 447.889 3999.03 447.956 3999.02 447.982C3999.01 447.985 3999.01 447.99 3999 447.994C3998.92 448.023 3998.77 448.052 3998.49 448.068C3998.21 448.084 3997.84 448.085 3997.34 448.078C3995.34 448.051 3991.49 447.905 3984.05 448.186C3976.65 448.465 3969.93 448.415 3963.04 448.32C3956.14 448.226 3949.08 448.085 3940.99 448.185C3932.92 448.284 3923.87 448.392 3916.59 448.452C3912.95 448.482 3909.76 448.501 3907.35 448.5C3904.92 448.499 3903.33 448.479 3902.86 448.436C3902.33 448.386 3901.95 448.373 3901.61 448.32C3901.29 448.27 3901.1 448.197 3900.97 448.091C3900.85 447.99 3900.72 447.81 3900.63 447.419C3900.54 447.02 3900.49 446.446 3900.5 445.609C3900.57 440.762 3900.57 436.467 3900.57 433.274C3900.57 431.678 3900.57 430.359 3900.57 429.385C3900.58 428.562 3900.59 428.017 3900.61 427.752C3900.62 427.75 3900.62 427.748 3900.63 427.746C3900.76 427.695 3900.99 427.646 3901.3 427.606C3901.93 427.528 3902.79 427.5 3903.75 427.5Z" fill="#84B099" stroke="black" stroke-linecap="round" stroke-linejoin="round"/>
<path d="M4796.25 425.5C4795.29 425.5 4794.26 425.53 4793.3 425.562C4792.35 425.592 4791.46 425.624 4790.81 425.624C4790.24 425.624 4788.4 425.747 4786.1 425.872C4783.81 425.996 4781.09 426.122 4778.82 426.122C4776.52 426.122 4778.74 426.614 4768.34 426.121C4763.13 425.875 4756.8 426.001 4750.43 426.131C4744.07 426.26 4737.66 426.392 4732.33 426.151L4732.33 426.15C4727.94 425.998 4721.08 425.841 4714.78 425.857C4711.62 425.866 4708.61 425.918 4706.11 426.037C4703.8 426.147 4701.98 426.315 4700.88 426.545C4700.87 426.612 4700.85 426.692 4700.84 426.785C4700.8 427.062 4700.76 427.421 4700.73 427.815C4700.66 428.603 4700.62 429.502 4700.61 430.107C4700.48 438.07 4700.35 441.032 4700.93 448.414C4700.95 448.63 4700.97 448.721 4700.99 448.766C4700.99 448.774 4700.99 448.775 4701.02 448.791C4701.09 448.82 4701.23 448.853 4701.52 448.871C4701.79 448.889 4702.16 448.89 4702.66 448.883C4704.66 448.852 4708.51 448.686 4715.95 449.003C4730.78 449.635 4759.41 449.149 4775.59 449.375C4791.76 449.6 4795.19 449.489 4797.13 449.286C4797.67 449.23 4798.04 449.215 4798.38 449.156C4798.7 449.101 4798.88 449.022 4799.01 448.901C4799.14 448.781 4799.27 448.56 4799.37 448.099C4799.46 447.634 4799.51 446.974 4799.5 446.025C4799.43 440.55 4799.43 435.697 4799.43 432.09C4799.43 430.286 4799.43 428.795 4799.43 427.693C4799.42 426.715 4799.4 426.076 4799.38 425.789C4799.37 425.785 4799.36 425.779 4799.35 425.774C4799.22 425.718 4799 425.664 4798.69 425.619C4798.07 425.531 4797.21 425.5 4796.25 425.5Z" fill="#84B099" stroke="black" stroke-linecap="round" stroke-linejoin="round"/>
<path d="M4097.19 250.5C4096.48 250.5 4095.7 250.53 4094.99 250.562C4094.27 250.592 4093.6 250.624 4093.11 250.624C4092.69 250.624 4091.33 250.746 4089.59 250.872C4087.87 250.997 4085.83 251.122 4084.12 251.122C4083.68 251.122 4083.48 251.151 4083.31 251.184C4083.11 251.22 4082.89 251.272 4082.48 251.306C4081.69 251.371 4080.15 251.368 4076.24 251.121C4072.35 250.875 4067.61 251.001 4062.83 251.131C4058.06 251.26 4053.25 251.391 4049.25 251.15L4049.24 251.151C4045.95 250.999 4040.81 250.841 4036.08 250.857C4033.72 250.866 4031.46 250.918 4029.6 251.036C4027.91 251.143 4026.59 251.303 4025.79 251.516C4025.78 251.586 4025.77 251.67 4025.76 251.767C4025.72 252.047 4025.7 252.409 4025.67 252.805C4025.62 253.595 4025.59 254.497 4025.58 255.105C4025.49 263.067 4025.39 266.035 4025.83 273.424C4025.84 273.641 4025.85 273.748 4025.87 273.81C4025.88 273.813 4025.88 273.817 4025.88 273.819C4025.9 273.831 4025.98 273.857 4026.16 273.872C4026.35 273.888 4026.62 273.89 4026.99 273.883C4028.49 273.852 4031.39 273.686 4036.97 274.003C4048.1 274.635 4069.54 274.15 4081.7 274.376C4093.83 274.602 4096.38 274.488 4097.82 274.288C4098.24 274.229 4098.49 274.218 4098.74 274.162C4098.94 274.115 4099.04 274.053 4099.12 273.954C4099.22 273.836 4099.32 273.606 4099.4 273.124C4099.47 272.647 4099.51 271.976 4099.5 271.024C4099.45 265.55 4099.45 260.697 4099.45 257.09C4099.45 255.286 4099.45 253.795 4099.44 252.692C4099.44 251.684 4099.43 251.027 4099.41 250.747C4099.34 250.706 4099.2 250.657 4098.98 250.615C4098.53 250.531 4097.91 250.5 4097.19 250.5Z" fill="#84B099" stroke="black" stroke-linecap="round" stroke-linejoin="round"/>
<path d="M4395.29 250.5C4394.34 250.5 4393.32 250.53 4392.37 250.562C4391.43 250.592 4390.55 250.624 4389.9 250.624C4389.34 250.624 4387.52 250.747 4385.24 250.872C4382.97 250.996 4380.28 251.122 4378.03 251.122C4375.76 251.122 4377.95 251.614 4367.65 251.121C4362.5 250.875 4356.24 251.001 4349.93 251.131C4343.63 251.26 4337.28 251.391 4332.01 251.15C4327.66 250.998 4320.87 250.841 4314.63 250.857C4311.5 250.866 4308.52 250.918 4306.05 251.037C4303.77 251.147 4301.96 251.315 4300.88 251.544C4300.87 251.611 4300.85 251.691 4300.84 251.784C4300.8 252.061 4300.76 252.421 4300.72 252.815C4300.66 253.603 4300.62 254.502 4300.61 255.107C4300.48 263.07 4300.36 266.033 4300.93 273.415C4300.95 273.63 4300.97 273.721 4300.99 273.767C4300.99 273.775 4300.98 273.777 4301.02 273.792C4301.08 273.821 4301.22 273.853 4301.5 273.871C4301.77 273.889 4302.14 273.89 4302.63 273.883C4304.61 273.852 4308.43 273.686 4315.79 274.003C4330.48 274.635 4358.81 274.149 4374.84 274.375C4390.84 274.6 4394.23 274.489 4396.16 274.286C4396.69 274.23 4397.06 274.215 4397.39 274.156C4397.71 274.101 4397.89 274.023 4398.01 273.903C4398.14 273.783 4398.27 273.562 4398.37 273.1C4398.46 272.635 4398.51 271.974 4398.5 271.025C4398.43 265.55 4398.43 260.697 4398.43 257.09C4398.43 255.286 4398.43 253.795 4398.43 252.693C4398.42 251.714 4398.4 251.074 4398.38 250.787C4398.38 250.783 4398.37 250.779 4398.36 250.774C4398.23 250.719 4398.01 250.664 4397.7 250.619C4397.09 250.531 4396.24 250.5 4395.29 250.5Z" fill="#84B099" stroke="black" stroke-linecap="round" stroke-linejoin="round"/>
<path d="M4292.5 250.5C4290.57 250.5 4288.5 250.531 4286.58 250.562C4284.66 250.594 4282.9 250.624 4281.62 250.624C4280.46 250.624 4276.74 250.748 4272.16 250.873C4267.58 250.997 4262.17 251.122 4257.64 251.122C4252.81 251.122 4257.58 251.616 4236.71 251.122C4226.27 250.875 4213.59 251.002 4200.85 251.131C4188.11 251.26 4175.32 251.392 4164.7 251.151L4164.7 251.15C4155.91 250.998 4142.18 250.841 4129.55 250.857C4117.11 250.874 4105.78 251.064 4101.27 251.591C4101.24 251.657 4101.2 251.744 4101.17 251.855C4101.09 252.119 4101.02 252.467 4100.95 252.856C4100.82 253.634 4100.73 254.521 4100.72 255.115C4100.46 263.08 4100.21 266.02 4101.37 273.376C4101.4 273.575 4101.43 273.62 4101.44 273.637C4101.45 273.648 4101.51 273.707 4101.76 273.762C4102.29 273.876 4103.3 273.898 4105.33 273.883C4109.33 273.852 4117.02 273.687 4131.87 274.003C4161.54 274.635 4218.86 274.15 4251.18 274.375C4283.49 274.6 4290.39 274.49 4294.34 274.284C4295.35 274.231 4296.17 274.212 4296.88 274.15C4297.59 274.089 4298.11 273.991 4298.49 273.813C4298.84 273.647 4299.08 273.407 4299.25 273.009C4299.42 272.586 4299.52 271.964 4299.5 271.031C4299.37 265.552 4299.37 260.697 4299.37 257.09C4299.37 255.285 4299.37 253.797 4299.35 252.697C4299.34 252.148 4299.33 251.7 4299.32 251.361C4299.3 251.142 4299.29 250.986 4299.28 250.882C4299.21 250.859 4299.12 250.831 4298.99 250.804C4298.65 250.729 4298.13 250.669 4297.48 250.623C4296.19 250.531 4294.43 250.5 4292.5 250.5Z" fill="#84B099" stroke="black" stroke-linecap="round" stroke-linejoin="round"/>
<path d="M4024.1 375.5C4023.91 375.5 4023.69 375.526 4023.46 375.558C4023.25 375.586 4022.99 375.624 4022.79 375.624C4022.81 375.624 4022.8 375.623 4022.73 375.637C4022.67 375.648 4022.59 375.665 4022.49 375.688C4022.31 375.733 4022.04 375.798 4021.77 375.86C4021.22 375.985 4020.52 376.122 4019.92 376.122C4019.9 376.122 4019.89 376.122 4019.88 376.123C4019.88 376.123 4019.88 376.124 4019.88 376.125C4019.85 376.142 4019.71 376.24 4019.5 376.292C4019.14 376.386 4018.55 376.357 4017.31 376.112C4016.14 375.881 4014.69 375.999 4013.14 376.13C4011.64 376.257 4010.04 376.395 4008.7 376.146L4008.69 376.146C4007.66 375.997 4006.04 375.841 4004.55 375.857C4003.81 375.866 4003.12 375.917 4002.56 376.028C4002.1 376.12 4001.78 376.242 4001.6 376.367C4001.59 376.457 4001.59 376.578 4001.58 376.729C4001.57 377.017 4001.56 377.385 4001.55 377.783C4001.54 378.579 4001.53 379.487 4001.53 380.102C4001.5 388.062 4001.46 391.042 4001.6 398.444C4001.61 398.64 4001.61 398.779 4001.62 398.882C4002.09 398.85 4003.08 398.685 4004.91 399.01C4006.64 399.316 4009.2 399.356 4011.86 399.342C4014.49 399.328 4017.21 399.262 4019.17 399.376C4021.11 399.488 4022.26 399.517 4022.99 399.492C4023.72 399.468 4023.97 399.392 4024.12 399.325C4024.2 399.294 4024.29 399.262 4024.31 399.253C4024.32 399.251 4024.32 399.25 4024.32 399.249C4024.33 399.231 4024.35 399.199 4024.36 399.143C4024.45 398.783 4024.51 397.965 4024.5 396.021C4024.47 385.064 4024.5 376.626 4024.47 375.638C4024.47 375.608 4024.46 375.588 4024.46 375.576L4024.46 375.561L4024.46 375.56C4024.45 375.558 4024.45 375.557 4024.45 375.555C4024.41 375.531 4024.3 375.5 4024.1 375.5Z" fill="#84B099" stroke="black" stroke-linecap="round" stroke-linejoin="round"/>
<path d="M3492.5 250.5C3490.57 250.5 3488.5 250.531 3486.58 250.562C3484.66 250.594 3482.9 250.624 3481.62 250.624C3480.46 250.624 3476.74 250.748 3472.16 250.873C3467.58 250.997 3462.17 251.122 3457.64 251.122C3452.81 251.122 3457.58 251.616 3436.71 251.122C3426.27 250.875 3413.59 251.002 3400.85 251.131C3388.11 251.26 3375.32 251.392 3364.7 251.151L3364.7 251.15C3355.91 250.998 3342.18 250.841 3329.55 250.857C3317.11 250.874 3305.78 251.064 3301.27 251.591C3301.24 251.657 3301.2 251.744 3301.17 251.855C3301.09 252.119 3301.02 252.467 3300.95 252.856C3300.82 253.634 3300.73 254.521 3300.72 255.115C3300.46 263.08 3300.21 266.02 3301.37 273.376C3301.4 273.575 3301.43 273.62 3301.44 273.637C3301.45 273.648 3301.51 273.707 3301.76 273.762C3302.29 273.876 3303.3 273.898 3305.33 273.883C3309.33 273.852 3317.02 273.687 3331.87 274.003C3361.54 274.635 3418.86 274.15 3451.18 274.375C3483.49 274.6 3490.39 274.49 3494.34 274.284C3495.35 274.231 3496.17 274.212 3496.88 274.15C3497.59 274.089 3498.11 273.991 3498.49 273.813C3498.84 273.647 3499.08 273.407 3499.25 273.009C3499.42 272.586 3499.52 271.964 3499.5 271.031C3499.37 265.552 3499.37 260.697 3499.37 257.09C3499.37 255.285 3499.37 253.797 3499.35 252.697C3499.34 252.148 3499.33 251.7 3499.32 251.361C3499.3 251.142 3499.29 250.986 3499.28 250.882C3499.21 250.859 3499.12 250.831 3498.99 250.804C3498.65 250.729 3498.13 250.669 3497.48 250.623C3496.19 250.531 3494.43 250.5 3492.5 250.5Z" fill="#84B099" stroke="black" stroke-linecap="round" stroke-linejoin="round"/>
<path d="M3892.5 425.5C3890.57 425.5 3888.5 425.531 3886.58 425.562C3884.66 425.594 3882.9 425.624 3881.62 425.624C3880.46 425.624 3876.74 425.748 3872.16 425.873C3867.58 425.997 3862.17 426.122 3857.64 426.122C3852.81 426.122 3857.58 426.616 3836.71 426.122C3826.27 425.875 3813.59 426.002 3800.85 426.131C3788.11 426.26 3775.32 426.392 3764.7 426.151L3764.7 426.15C3755.91 425.998 3742.18 425.841 3729.55 425.857C3717.11 425.874 3705.78 426.064 3701.27 426.591C3701.24 426.657 3701.2 426.744 3701.17 426.855C3701.09 427.119 3701.02 427.467 3700.95 427.856C3700.82 428.634 3700.73 429.521 3700.72 430.115C3700.46 438.08 3700.21 441.02 3701.37 448.376C3701.4 448.575 3701.43 448.62 3701.44 448.637C3701.45 448.648 3701.51 448.707 3701.76 448.762C3702.29 448.876 3703.3 448.898 3705.33 448.883C3709.33 448.852 3717.02 448.687 3731.87 449.003C3761.54 449.635 3818.86 449.15 3851.18 449.375C3883.49 449.6 3890.39 449.49 3894.34 449.284C3895.35 449.231 3896.17 449.212 3896.88 449.15C3897.59 449.089 3898.11 448.991 3898.49 448.813C3898.84 448.647 3899.08 448.407 3899.25 448.009C3899.42 447.586 3899.52 446.964 3899.5 446.031C3899.37 440.552 3899.37 435.697 3899.37 432.09C3899.37 430.285 3899.37 428.797 3899.35 427.697C3899.34 427.148 3899.33 426.7 3899.32 426.361C3899.3 426.142 3899.29 425.986 3899.28 425.882C3899.21 425.859 3899.12 425.831 3898.99 425.804C3898.65 425.729 3898.13 425.669 3897.48 425.623C3896.19 425.531 3894.43 425.5 3892.5 425.5Z" fill="#84B099" stroke="black" stroke-linecap="round" stroke-linejoin="round"/>
<path d="M4692.5 425.5C4690.57 425.5 4688.5 425.531 4686.58 425.562C4684.66 425.594 4682.9 425.624 4681.62 425.624C4680.46 425.624 4676.74 425.748 4672.16 425.873C4667.58 425.997 4662.17 426.122 4657.64 426.122C4652.81 426.122 4657.58 426.616 4636.71 426.122C4626.27 425.875 4613.59 426.002 4600.85 426.131C4588.11 426.26 4575.32 426.392 4564.7 426.151L4564.7 426.15C4555.91 425.998 4542.18 425.841 4529.55 425.857C4517.11 425.874 4505.78 426.064 4501.27 426.591C4501.24 426.657 4501.2 426.744 4501.17 426.855C4501.09 427.119 4501.02 427.467 4500.95 427.856C4500.82 428.634 4500.73 429.521 4500.72 430.115C4500.46 438.08 4500.21 441.02 4501.37 448.376C4501.4 448.575 4501.43 448.62 4501.44 448.637C4501.45 448.648 4501.51 448.707 4501.76 448.762C4502.29 448.876 4503.3 448.898 4505.33 448.883C4509.33 448.852 4517.02 448.687 4531.87 449.003C4561.54 449.635 4618.86 449.15 4651.18 449.375C4683.49 449.6 4690.39 449.49 4694.34 449.284C4695.35 449.231 4696.17 449.212 4696.88 449.15C4697.59 449.089 4698.11 448.991 4698.49 448.813C4698.84 448.647 4699.08 448.407 4699.25 448.009C4699.42 447.586 4699.52 446.964 4699.5 446.031C4699.37 440.552 4699.37 435.697 4699.37 432.09C4699.37 430.285 4699.37 428.797 4699.35 427.697C4699.34 427.148 4699.33 426.7 4699.32 426.361C4699.3 426.142 4699.29 425.986 4699.28 425.882C4699.21 425.859 4699.12 425.831 4698.99 425.804C4698.65 425.729 4698.13 425.669 4697.48 425.623C4696.19 425.531 4694.43 425.5 4692.5 425.5Z" fill="#84B099" stroke="black" stroke-linecap="round" stroke-linejoin="round"/>
<path d="M4896.25 250.5C4895.29 250.5 4894.26 250.53 4893.3 250.562C4892.35 250.592 4891.46 250.624 4890.81 250.624C4890.24 250.624 4888.4 250.747 4886.1 250.872C4883.81 250.996 4881.09 251.122 4878.82 251.122C4876.52 251.122 4878.74 251.614 4868.34 251.121C4863.13 250.875 4856.8 251.001 4850.43 251.131C4844.07 251.26 4837.66 251.392 4832.33 251.151L4832.33 251.15C4827.94 250.998 4821.08 250.841 4814.78 250.857C4811.62 250.866 4808.61 250.918 4806.11 251.037C4803.8 251.147 4801.98 251.315 4800.88 251.545C4800.87 251.612 4800.85 251.692 4800.84 251.785C4800.8 252.062 4800.76 252.421 4800.73 252.815C4800.66 253.603 4800.62 254.502 4800.61 255.107C4800.48 263.07 4800.35 266.032 4800.93 273.414C4800.95 273.63 4800.97 273.721 4800.99 273.766C4800.99 273.774 4800.99 273.775 4801.02 273.791C4801.09 273.82 4801.23 273.853 4801.52 273.871C4801.79 273.889 4802.16 273.89 4802.66 273.883C4804.66 273.852 4808.51 273.686 4815.95 274.003C4830.78 274.635 4859.41 274.149 4875.59 274.375C4891.76 274.6 4895.19 274.489 4897.13 274.286C4897.67 274.23 4898.04 274.215 4898.38 274.156C4898.7 274.101 4898.88 274.022 4899.01 273.901C4899.14 273.781 4899.27 273.56 4899.37 273.099C4899.46 272.634 4899.51 271.974 4899.5 271.025C4899.43 265.55 4899.43 260.697 4899.43 257.09C4899.43 255.286 4899.43 253.795 4899.43 252.693C4899.42 251.715 4899.4 251.076 4899.38 250.789C4899.37 250.785 4899.36 250.779 4899.35 250.774C4899.22 250.718 4899 250.664 4898.69 250.619C4898.07 250.531 4897.21 250.5 4896.25 250.5Z" fill="#84B099" stroke="black" stroke-linecap="round" stroke-linejoin="round"/>
<path d="M5296.25 425.5C5295.29 425.5 5294.26 425.53 5293.3 425.562C5292.35 425.592 5291.46 425.624 5290.81 425.624C5290.24 425.624 5288.4 425.747 5286.1 425.872C5283.81 425.996 5281.09 426.122 5278.82 426.122C5276.52 426.122 5278.74 426.614 5268.34 426.121C5263.13 425.875 5256.8 426.001 5250.43 426.131C5244.07 426.26 5237.66 426.392 5232.33 426.151L5232.33 426.15C5227.94 425.998 5221.08 425.841 5214.78 425.857C5211.62 425.866 5208.61 425.918 5206.11 426.037C5203.8 426.147 5201.98 426.315 5200.88 426.545C5200.87 426.612 5200.85 426.692 5200.84 426.785C5200.8 427.062 5200.76 427.421 5200.73 427.815C5200.66 428.603 5200.62 429.502 5200.61 430.107C5200.48 438.07 5200.35 441.032 5200.93 448.414C5200.95 448.63 5200.97 448.721 5200.99 448.766C5200.99 448.774 5200.99 448.775 5201.02 448.791C5201.09 448.82 5201.23 448.853 5201.52 448.871C5201.79 448.889 5202.16 448.89 5202.66 448.883C5204.66 448.852 5208.51 448.686 5215.95 449.003C5230.78 449.635 5259.41 449.149 5275.59 449.375C5291.76 449.6 5295.19 449.489 5297.13 449.286C5297.67 449.23 5298.04 449.215 5298.38 449.156C5298.7 449.101 5298.88 449.022 5299.01 448.901C5299.14 448.781 5299.27 448.56 5299.37 448.099C5299.46 447.634 5299.51 446.974 5299.5 446.025C5299.43 440.55 5299.43 435.697 5299.43 432.09C5299.43 430.286 5299.43 428.795 5299.43 427.693C5299.42 426.715 5299.4 426.076 5299.38 425.789C5299.37 425.785 5299.36 425.779 5299.35 425.774C5299.22 425.718 5299 425.664 5298.69 425.619C5298.07 425.531 5297.21 425.5 5296.25 425.5Z" fill="#84B099" stroke="black" stroke-linecap="round" stroke-linejoin="round"/>
<path d="M6096.25 425.5C6095.29 425.5 6094.26 425.53 6093.3 425.562C6092.35 425.592 6091.46 425.624 6090.81 425.624C6090.24 425.624 6088.4 425.747 6086.1 425.872C6083.81 425.996 6081.09 426.122 6078.82 426.122C6076.52 426.122 6078.74 426.614 6068.34 426.121C6063.13 425.875 6056.8 426.001 6050.43 426.131C6044.07 426.26 6037.66 426.392 6032.33 426.151L6032.33 426.15C6027.94 425.998 6021.08 425.841 6014.78 425.857C6011.62 425.866 6008.61 425.918 6006.11 426.037C6003.8 426.147 6001.98 426.315 6000.88 426.545C6000.87 426.612 6000.85 426.692 6000.84 426.785C6000.8 427.062 6000.76 427.421 6000.73 427.815C6000.66 428.603 6000.62 429.502 6000.61 430.107C6000.48 438.07 6000.35 441.032 6000.93 448.414C6000.95 448.63 6000.97 448.721 6000.99 448.766C6000.99 448.774 6000.99 448.775 6001.02 448.791C6001.09 448.82 6001.23 448.853 6001.52 448.871C6001.79 448.889 6002.16 448.89 6002.66 448.883C6004.66 448.852 6008.51 448.686 6015.95 449.003C6030.78 449.635 6059.41 449.149 6075.59 449.375C6091.76 449.6 6095.19 449.489 6097.13 449.286C6097.67 449.23 6098.04 449.215 6098.38 449.156C6098.7 449.101 6098.88 449.022 6099.01 448.901C6099.14 448.781 6099.27 448.56 6099.37 448.099C6099.46 447.634 6099.51 446.974 6099.5 446.025C6099.43 440.55 6099.43 435.697 6099.43 432.09C6099.43 430.286 6099.43 428.795 6099.43 427.693C6099.42 426.715 6099.4 426.076 6099.38 425.789C6099.37 425.785 6099.36 425.779 6099.35 425.774C6099.22 425.718 6099 425.664 6098.69 425.619C6098.07 425.531 6097.21 425.5 6096.25 425.5Z" fill="#84B099" stroke="black" stroke-linecap="round" stroke-linejoin="round"/>
<path d="M5196.25 250.5C5195.29 250.5 5194.26 250.53 5193.3 250.562C5192.35 250.592 5191.46 250.624 5190.81 250.624C5190.24 250.624 5188.4 250.747 5186.1 250.872C5183.81 250.996 5181.09 251.122 5178.82 251.122C5176.52 251.122 5178.74 251.614 5168.34 251.121C5163.13 250.875 5156.8 251.001 5150.43 251.131C5144.07 251.26 5137.66 251.392 5132.33 251.151L5132.33 251.15C5127.94 250.998 5121.08 250.841 5114.78 250.857C5111.62 250.866 5108.61 250.918 5106.11 251.037C5103.8 251.147 5101.98 251.315 5100.88 251.545C5100.87 251.612 5100.85 251.692 5100.84 251.785C5100.8 252.062 5100.76 252.421 5100.73 252.815C5100.66 253.603 5100.62 254.502 5100.61 255.107C5100.48 263.07 5100.35 266.032 5100.93 273.414C5100.95 273.63 5100.97 273.721 5100.99 273.766C5100.99 273.774 5100.99 273.775 5101.02 273.791C5101.09 273.82 5101.23 273.853 5101.52 273.871C5101.79 273.889 5102.16 273.89 5102.66 273.883C5104.66 273.852 5108.51 273.686 5115.95 274.003C5130.78 274.635 5159.41 274.149 5175.59 274.375C5191.76 274.6 5195.19 274.489 5197.13 274.286C5197.67 274.23 5198.04 274.215 5198.38 274.156C5198.7 274.101 5198.88 274.022 5199.01 273.901C5199.14 273.781 5199.27 273.56 5199.37 273.099C5199.46 272.634 5199.51 271.974 5199.5 271.025C5199.43 265.55 5199.43 260.697 5199.43 257.09C5199.43 255.286 5199.43 253.795 5199.43 252.693C5199.42 251.715 5199.4 251.076 5199.38 250.789C5199.37 250.785 5199.36 250.779 5199.35 250.774C5199.22 250.718 5199 250.664 5198.69 250.619C5198.07 250.531 5197.21 250.5 5196.25 250.5Z" fill="#84B099" stroke="black" stroke-linecap="round" stroke-linejoin="round"/>
<path d="M5503.75 427.5C5504.71 427.5 5505.74 427.527 5506.7 427.555C5507.65 427.582 5508.54 427.61 5509.19 427.61V427.609C5513.76 427.795 5527.43 427.705 5534.51 427.61C5549 427.416 5555.99 427.61 5567.62 428.076H5567.63C5574.07 428.284 5580.95 428.143 5586.76 428.072C5589.66 428.037 5592.29 428.019 5594.47 428.071C5596.48 428.119 5598.07 428.228 5599.12 428.425C5599.14 428.475 5599.15 428.532 5599.16 428.598C5599.2 428.839 5599.24 429.154 5599.27 429.502C5599.34 430.196 5599.38 430.989 5599.39 431.522C5599.52 438.569 5599.65 441.186 5599.07 447.712C5599.05 447.889 5599.03 447.956 5599.02 447.982C5599.01 447.985 5599.01 447.99 5599 447.994C5598.92 448.023 5598.77 448.052 5598.49 448.068C5598.21 448.084 5597.84 448.085 5597.34 448.078C5595.34 448.051 5591.49 447.905 5584.05 448.186C5576.65 448.465 5569.93 448.415 5563.04 448.32C5556.14 448.226 5549.08 448.085 5540.99 448.185C5532.92 448.284 5523.87 448.392 5516.59 448.452C5512.95 448.482 5509.76 448.501 5507.35 448.5C5504.92 448.499 5503.33 448.479 5502.86 448.436C5502.33 448.386 5501.95 448.373 5501.61 448.32C5501.29 448.27 5501.1 448.197 5500.97 448.091C5500.85 447.99 5500.72 447.81 5500.63 447.419C5500.54 447.02 5500.49 446.446 5500.5 445.609C5500.57 440.762 5500.57 436.467 5500.57 433.274C5500.57 431.678 5500.57 430.359 5500.57 429.385C5500.58 428.562 5500.59 428.017 5500.61 427.752C5500.62 427.75 5500.62 427.748 5500.63 427.746C5500.76 427.695 5500.99 427.646 5501.3 427.606C5501.93 427.528 5502.79 427.5 5503.75 427.5Z" fill="#84B099" stroke="black" stroke-linecap="round" stroke-linejoin="round"/>
<path d="M6396.25 425.5C6395.29 425.5 6394.26 425.53 6393.3 425.562C6392.35 425.592 6391.46 425.624 6390.81 425.624C6390.24 425.624 6388.4 425.747 6386.1 425.872C6383.81 425.996 6381.09 426.122 6378.82 426.122C6376.52 426.122 6378.74 426.614 6368.34 426.121C6363.13 425.875 6356.8 426.001 6350.43 426.131C6344.07 426.26 6337.66 426.392 6332.33 426.151L6332.33 426.15C6327.94 425.998 6321.08 425.841 6314.78 425.857C6311.62 425.866 6308.61 425.918 6306.11 426.037C6303.8 426.147 6301.98 426.315 6300.88 426.545C6300.87 426.612 6300.85 426.692 6300.84 426.785C6300.8 427.062 6300.76 427.421 6300.73 427.815C6300.66 428.603 6300.62 429.502 6300.61 430.107C6300.48 438.07 6300.35 441.032 6300.93 448.414C6300.95 448.63 6300.97 448.721 6300.99 448.766C6300.99 448.774 6300.99 448.775 6301.02 448.791C6301.09 448.82 6301.23 448.853 6301.52 448.871C6301.79 448.889 6302.16 448.89 6302.66 448.883C6304.66 448.852 6308.51 448.686 6315.95 449.003C6330.78 449.635 6359.41 449.149 6375.59 449.375C6391.76 449.6 6395.19 449.489 6397.13 449.286C6397.67 449.23 6398.04 449.215 6398.38 449.156C6398.7 449.101 6398.88 449.022 6399.01 448.901C6399.14 448.781 6399.27 448.56 6399.37 448.099C6399.46 447.634 6399.51 446.974 6399.5 446.025C6399.43 440.55 6399.43 435.697 6399.43 432.09C6399.43 430.286 6399.43 428.795 6399.43 427.693C6399.42 426.715 6399.4 426.076 6399.38 425.789C6399.37 425.785 6399.36 425.779 6399.35 425.774C6399.22 425.718 6399 425.664 6398.69 425.619C6398.07 425.531 6397.21 425.5 6396.25 425.5Z" fill="#84B099" stroke="black" stroke-linecap="round" stroke-linejoin="round"/>
<path d="M5697.19 250.5C5696.48 250.5 5695.7 250.53 5694.99 250.562C5694.27 250.592 5693.6 250.624 5693.11 250.624C5692.69 250.624 5691.33 250.746 5689.59 250.872C5687.87 250.997 5685.83 251.122 5684.12 251.122C5683.68 251.122 5683.48 251.151 5683.31 251.184C5683.11 251.22 5682.89 251.272 5682.48 251.306C5681.69 251.371 5680.15 251.368 5676.24 251.121C5672.35 250.875 5667.61 251.001 5662.83 251.131C5658.06 251.26 5653.25 251.391 5649.25 251.15L5649.24 251.151C5645.95 250.999 5640.81 250.841 5636.08 250.857C5633.72 250.866 5631.46 250.918 5629.6 251.036C5627.91 251.143 5626.59 251.303 5625.79 251.516C5625.78 251.586 5625.77 251.67 5625.76 251.767C5625.72 252.047 5625.7 252.409 5625.67 252.805C5625.62 253.595 5625.59 254.497 5625.58 255.105C5625.49 263.067 5625.39 266.035 5625.83 273.424C5625.84 273.641 5625.85 273.748 5625.87 273.81C5625.88 273.813 5625.88 273.817 5625.88 273.819C5625.9 273.831 5625.98 273.857 5626.16 273.872C5626.35 273.888 5626.62 273.89 5626.99 273.883C5628.49 273.852 5631.39 273.686 5636.97 274.003C5648.1 274.635 5669.54 274.15 5681.7 274.376C5693.83 274.602 5696.38 274.488 5697.82 274.288C5698.24 274.229 5698.49 274.218 5698.74 274.162C5698.94 274.115 5699.04 274.053 5699.12 273.954C5699.22 273.836 5699.32 273.606 5699.4 273.124C5699.47 272.647 5699.51 271.976 5699.5 271.024C5699.45 265.55 5699.45 260.697 5699.45 257.09C5699.45 255.286 5699.45 253.795 5699.44 252.692C5699.44 251.684 5699.43 251.027 5699.41 250.747C5699.34 250.706 5699.2 250.657 5698.98 250.615C5698.53 250.531 5697.91 250.5 5697.19 250.5Z" fill="#84B099" stroke="black" stroke-linecap="round" stroke-linejoin="round"/>
<path d="M5995.29 250.5C5994.34 250.5 5993.32 250.53 5992.37 250.562C5991.43 250.592 5990.55 250.624 5989.9 250.624C5989.34 250.624 5987.52 250.747 5985.24 250.872C5982.97 250.996 5980.28 251.122 5978.03 251.122C5975.76 251.122 5977.95 251.614 5967.65 251.121C5962.5 250.875 5956.24 251.001 5949.93 251.131C5943.63 251.26 5937.28 251.391 5932.01 251.15C5927.66 250.998 5920.87 250.841 5914.63 250.857C5911.5 250.866 5908.52 250.918 5906.05 251.037C5903.77 251.147 5901.96 251.315 5900.88 251.544C5900.87 251.611 5900.85 251.691 5900.84 251.784C5900.8 252.061 5900.76 252.421 5900.72 252.815C5900.66 253.603 5900.62 254.502 5900.61 255.107C5900.48 263.07 5900.36 266.033 5900.93 273.415C5900.95 273.63 5900.97 273.721 5900.99 273.767C5900.99 273.775 5900.98 273.777 5901.02 273.792C5901.08 273.821 5901.22 273.853 5901.5 273.871C5901.77 273.889 5902.14 273.89 5902.63 273.883C5904.61 273.852 5908.43 273.686 5915.79 274.003C5930.48 274.635 5958.81 274.149 5974.84 274.375C5990.84 274.6 5994.23 274.489 5996.16 274.286C5996.69 274.23 5997.06 274.215 5997.39 274.156C5997.71 274.101 5997.89 274.023 5998.01 273.903C5998.14 273.783 5998.27 273.562 5998.37 273.1C5998.46 272.635 5998.51 271.974 5998.5 271.025C5998.43 265.55 5998.43 260.697 5998.43 257.09C5998.43 255.286 5998.43 253.795 5998.43 252.693C5998.42 251.714 5998.4 251.074 5998.38 250.787C5998.38 250.783 5998.37 250.779 5998.36 250.774C5998.23 250.719 5998.01 250.664 5997.7 250.619C5997.09 250.531 5996.24 250.5 5995.29 250.5Z" fill="#84B099" stroke="black" stroke-linecap="round" stroke-linejoin="round"/>
<path d="M5892.5 250.5C5890.57 250.5 5888.5 250.531 5886.58 250.562C5884.66 250.594 5882.9 250.624 5881.62 250.624C5880.46 250.624 5876.74 250.748 5872.16 250.873C5867.58 250.997 5862.17 251.122 5857.64 251.122C5852.81 251.122 5857.58 251.616 5836.71 251.122C5826.27 250.875 5813.59 251.002 5800.85 251.131C5788.11 251.26 5775.32 251.392 5764.7 251.151L5764.7 251.15C5755.91 250.998 5742.18 250.841 5729.55 250.857C5717.11 250.874 5705.78 251.064 5701.27 251.591C5701.24 251.657 5701.2 251.744 5701.17 251.855C5701.09 252.119 5701.02 252.467 5700.95 252.856C5700.82 253.634 5700.73 254.521 5700.72 255.115C5700.46 263.08 5700.21 266.02 5701.37 273.376C5701.4 273.575 5701.43 273.62 5701.44 273.637C5701.45 273.648 5701.51 273.707 5701.76 273.762C5702.29 273.876 5703.3 273.898 5705.33 273.883C5709.33 273.852 5717.02 273.687 5731.87 274.003C5761.54 274.635 5818.86 274.15 5851.18 274.375C5883.49 274.6 5890.39 274.49 5894.34 274.284C5895.35 274.231 5896.17 274.212 5896.88 274.15C5897.59 274.089 5898.11 273.991 5898.49 273.813C5898.84 273.647 5899.08 273.407 5899.25 273.009C5899.42 272.586 5899.52 271.964 5899.5 271.031C5899.37 265.552 5899.37 260.697 5899.37 257.09C5899.37 255.285 5899.37 253.797 5899.35 252.697C5899.34 252.148 5899.33 251.7 5899.32 251.361C5899.3 251.142 5899.29 250.986 5899.28 250.882C5899.21 250.859 5899.12 250.831 5898.99 250.804C5898.65 250.729 5898.13 250.669 5897.48 250.623C5896.19 250.531 5894.43 250.5 5892.5 250.5Z" fill="#84B099" stroke="black" stroke-linecap="round" stroke-linejoin="round"/>
<path d="M5624.1 375.5C5623.91 375.5 5623.69 375.526 5623.46 375.558C5623.25 375.586 5622.99 375.624 5622.79 375.624C5622.81 375.624 5622.8 375.623 5622.73 375.637C5622.67 375.648 5622.59 375.665 5622.49 375.688C5622.31 375.733 5622.04 375.798 5621.77 375.86C5621.22 375.985 5620.52 376.122 5619.92 376.122C5619.9 376.122 5619.89 376.122 5619.88 376.123C5619.88 376.123 5619.88 376.124 5619.88 376.125C5619.85 376.142 5619.71 376.24 5619.5 376.292C5619.14 376.386 5618.55 376.357 5617.31 376.112C5616.14 375.881 5614.69 375.999 5613.14 376.13C5611.64 376.257 5610.04 376.395 5608.7 376.146L5608.69 376.146C5607.66 375.997 5606.04 375.841 5604.55 375.857C5603.81 375.866 5603.12 375.917 5602.56 376.028C5602.1 376.12 5601.78 376.242 5601.6 376.367C5601.59 376.457 5601.59 376.578 5601.58 376.729C5601.57 377.017 5601.56 377.385 5601.55 377.783C5601.54 378.579 5601.53 379.487 5601.53 380.102C5601.5 388.062 5601.46 391.042 5601.6 398.444C5601.61 398.64 5601.61 398.779 5601.62 398.882C5602.09 398.85 5603.08 398.685 5604.91 399.01C5606.64 399.316 5609.2 399.356 5611.86 399.342C5614.49 399.328 5617.21 399.262 5619.17 399.376C5621.11 399.488 5622.26 399.517 5622.99 399.492C5623.72 399.468 5623.97 399.392 5624.12 399.325C5624.2 399.294 5624.29 399.262 5624.31 399.253C5624.32 399.251 5624.32 399.25 5624.32 399.249C5624.33 399.231 5624.35 399.199 5624.36 399.143C5624.45 398.783 5624.51 397.965 5624.5 396.021C5624.47 385.064 5624.5 376.626 5624.47 375.638C5624.47 375.608 5624.46 375.588 5624.46 375.576L5624.46 375.561L5624.46 375.56C5624.45 375.558 5624.45 375.557 5624.45 375.555C5624.41 375.531 5624.3 375.5 5624.1 375.5Z" fill="#84B099" stroke="black" stroke-linecap="round" stroke-linejoin="round"/>
<path d="M5092.5 250.5C5090.57 250.5 5088.5 250.531 5086.58 250.562C5084.66 250.594 5082.9 250.624 5081.62 250.624C5080.46 250.624 5076.74 250.748 5072.16 250.873C5067.58 250.997 5062.17 251.122 5057.64 251.122C5052.81 251.122 5057.58 251.616 5036.71 251.122C5026.27 250.875 5013.59 251.002 5000.85 251.131C4988.11 251.26 4975.32 251.392 4964.7 251.151L4964.7 251.15C4955.91 250.998 4942.18 250.841 4929.55 250.857C4917.11 250.874 4905.78 251.064 4901.27 251.591C4901.24 251.657 4901.2 251.744 4901.17 251.855C4901.09 252.119 4901.02 252.467 4900.95 252.856C4900.82 253.634 4900.73 254.521 4900.72 255.115C4900.46 263.08 4900.21 266.02 4901.37 273.376C4901.4 273.575 4901.43 273.62 4901.44 273.637C4901.45 273.648 4901.51 273.707 4901.76 273.762C4902.29 273.876 4903.3 273.898 4905.33 273.883C4909.33 273.852 4917.02 273.687 4931.87 274.003C4961.54 274.635 5018.86 274.15 5051.18 274.375C5083.49 274.6 5090.39 274.49 5094.34 274.284C5095.35 274.231 5096.17 274.212 5096.88 274.15C5097.59 274.089 5098.11 273.991 5098.49 273.813C5098.84 273.647 5099.08 273.407 5099.25 273.009C5099.42 272.586 5099.52 271.964 5099.5 271.031C5099.37 265.552 5099.37 260.697 5099.37 257.09C5099.37 255.285 5099.37 253.797 5099.35 252.697C5099.34 252.148 5099.33 251.7 5099.32 251.361C5099.3 251.142 5099.29 250.986 5099.28 250.882C5099.21 250.859 5099.12 250.831 5098.99 250.804C5098.65 250.729 5098.13 250.669 5097.48 250.623C5096.19 250.531 5094.43 250.5 5092.5 250.5Z" fill="#84B099" stroke="black" stroke-linecap="round" stroke-linejoin="round"/>
<path d="M5492.5 425.5C5490.57 425.5 5488.5 425.531 5486.58 425.562C5484.66 425.594 5482.9 425.624 5481.62 425.624C5480.46 425.624 5476.74 425.748 5472.16 425.873C5467.58 425.997 5462.17 426.122 5457.64 426.122C5452.81 426.122 5457.58 426.616 5436.71 426.122C5426.27 425.875 5413.59 426.002 5400.85 426.131C5388.11 426.26 5375.32 426.392 5364.7 426.151L5364.7 426.15C5355.91 425.998 5342.18 425.841 5329.55 425.857C5317.11 425.874 5305.78 426.064 5301.27 426.591C5301.24 426.657 5301.2 426.744 5301.17 426.855C5301.09 427.119 5301.02 427.467 5300.95 427.856C5300.82 428.634 5300.73 429.521 5300.72 430.115C5300.46 438.08 5300.21 441.02 5301.37 448.376C5301.4 448.575 5301.43 448.62 5301.44 448.637C5301.45 448.648 5301.51 448.707 5301.76 448.762C5302.29 448.876 5303.3 448.898 5305.33 448.883C5309.33 448.852 5317.02 448.687 5331.87 449.003C5361.54 449.635 5418.86 449.15 5451.18 449.375C5483.49 449.6 5490.39 449.49 5494.34 449.284C5495.35 449.231 5496.17 449.212 5496.88 449.15C5497.59 449.089 5498.11 448.991 5498.49 448.813C5498.84 448.647 5499.08 448.407 5499.25 448.009C5499.42 447.586 5499.52 446.964 5499.5 446.031C5499.37 440.552 5499.37 435.697 5499.37 432.09C5499.37 430.285 5499.37 428.797 5499.35 427.697C5499.34 427.148 5499.33 426.7 5499.32 426.361C5499.3 426.142 5499.29 425.986 5499.28 425.882C5499.21 425.859 5499.12 425.831 5498.99 425.804C5498.65 425.729 5498.13 425.669 5497.48 425.623C5496.19 425.531 5494.43 425.5 5492.5 425.5Z" fill="#84B099" stroke="black" stroke-linecap="round" stroke-linejoin="round"/>
<path d="M6292.5 425.5C6290.57 425.5 6288.5 425.531 6286.58 425.562C6284.66 425.594 6282.9 425.624 6281.62 425.624C6280.46 425.624 6276.74 425.748 6272.16 425.873C6267.58 425.997 6262.17 426.122 6257.64 426.122C6252.81 426.122 6257.58 426.616 6236.71 426.122C6226.27 425.875 6213.59 426.002 6200.85 426.131C6188.11 426.26 6175.32 426.392 6164.7 426.151L6164.7 426.15C6155.91 425.998 6142.18 425.841 6129.55 425.857C6117.11 425.874 6105.78 426.064 6101.27 426.591C6101.24 426.657 6101.2 426.744 6101.17 426.855C6101.09 427.119 6101.02 427.467 6100.95 427.856C6100.82 428.634 6100.73 429.521 6100.72 430.115C6100.46 438.08 6100.21 441.02 6101.37 448.376C6101.4 448.575 6101.43 448.62 6101.44 448.637C6101.45 448.648 6101.51 448.707 6101.76 448.762C6102.29 448.876 6103.3 448.898 6105.33 448.883C6109.33 448.852 6117.02 448.687 6131.87 449.003C6161.54 449.635 6218.86 449.15 6251.18 449.375C6283.49 449.6 6290.39 449.49 6294.34 449.284C6295.35 449.231 6296.17 449.212 6296.88 449.15C6297.59 449.089 6298.11 448.991 6298.49 448.813C6298.84 448.647 6299.08 448.407 6299.25 448.009C6299.42 447.586 6299.52 446.964 6299.5 446.031C6299.37 440.552 6299.37 435.697 6299.37 432.09C6299.37 430.285 6299.37 428.797 6299.35 427.697C6299.34 427.148 6299.33 426.7 6299.32 426.361C6299.3 426.142 6299.29 425.986 6299.28 425.882C6299.21 425.859 6299.12 425.831 6298.99 425.804C6298.65 425.729 6298.13 425.669 6297.48 425.623C6296.19 425.531 6294.43 425.5 6292.5 425.5Z" fill="#84B099" stroke="black" stroke-linecap="round" stroke-linejoin="round"/>
</svg>
